<?xml version="1.0" encoding="utf-8"?>
<!-- Generator: Adobe Illustrator 24.0.1, SVG Export Plug-In . SVG Version: 6.00 Build 0)  -->
<svg version="1.1" id="Layer_1" xmlns="http://www.w3.org/2000/svg" xmlns:xlink="http://www.w3.org/1999/xlink" x="0px" y="0px"
	 viewBox="0 0 136.58 136.58" style="enable-background:new 0 0 136.58 136.58;" xml:space="preserve">
<style type="text/css">
	.st0{fill:#3A5499;}
	.st1{fill:#FFFFFF;}
</style>
<g>
	<path class="st0" d="M136.58,113.24c0,12.89-10.45,23.34-23.34,23.34h-89.9C10.45,136.58,0,126.13,0,113.24v-89.9
		C0,10.45,10.45,0,23.34,0h89.9c12.89,0,23.34,10.45,23.34,23.34V113.24z"/>
	<path class="st1" d="M93.72,136.58V84.14h17.6l2.64-20.44H93.72V50.66c0-5.92,1.64-9.95,10.13-9.95l10.82,0V22.43
		c-1.87-0.25-8.29-0.8-15.77-0.8c-15.6,0-26.28,9.52-26.28,27.01v15.07H54.97v20.44h17.65v52.44H93.72L93.72,136.58z"/>
</g>
</svg>
