<svg viewBox="0 0 117.27 21.79" xmlns="http://www.w3.org/2000/svg"><radialGradient id="a" cx="50.245" cy="2.098" gradientUnits="userSpaceOnUse" r="57.815"><stop offset="0" stop-color="#deb84a"/><stop offset=".262" stop-color="#cea036"/><stop offset=".479" stop-color="#c49129"/><stop offset=".685" stop-color="#bc8729"/><stop offset="1" stop-color="#a87029"/></radialGradient><path d="M93.52 21.79c-1-.19-2-.58-2.98-1.19-2.82-1.76-4.75-4.22-6.56-6.67-.02-.03-.03-.07-.05-.1-.02-.02-.08-.1-.16-.19-.08-.11-.16-.21-.24-.32-2.9-3.93-5.89-8-12.3-9.58-.96-.24-1.89-.4-2.78-.49-3.01-.31-5.59.23-7.69 1.62-3.57 2.35-4.47 6.34-4.66 7.51-.08.5-.11 1.01-.11 1.51C52.06 7 45.14 2.17 36.86.58 30.96-.56 24.82 0 18.96 2.11 13.18 4.47 8.24 8.15 4.61 12.94A29.384 29.384 0 0 0 0 21.79h1.48c.11-.56.27-1.11.51-1.65 1.69-3.8 6.16-5.51 9.96-3.82 2.33 1.04 3.87 3.13 4.33 5.47h1.75c-.51-.66-.92-1.42-1.17-2.31-.52-1.79-.38-3.35.39-4.62 1.25-2.05 3.82-2.87 4.62-3.08-.26 1.15-.39 2.39-.37 3.7.04 2.56.67 4.64 1.54 6.31h1.32c-.93-1.61-1.66-3.69-1.69-6.32-.02-1.06.08-2.06.26-3 .77.58 1.5 1.26 2.2 2.06 2.21 2.53 2.98 5.13 3.17 7.27h1.16c-.19-2.36-1.02-5.24-3.46-8.03-.87-.99-1.79-1.82-2.76-2.51.75-.38 3.2-1.49 5.5-.8 1.43.43 2.57 1.5 3.38 3.17 1.4 2.87.52 5.83-.8 8.16h1.34c.77-1.49 1.34-3.2 1.34-5 .8.93 1.81 1.7 3 2.23 4.38 1.95 9.54-.02 11.49-4.4.89-2 .96-4.14.36-6.08.93 1.3 1.9 3.02 2.54 5.15.9 2.98.14 5.86-1.3 8.1m48.69 0c1.68-.97 2.99-2.5 3.58-4.15l.01-.01c.5-1.05.55-2.91.33-4.21-.45-2.72-2.69-4.72-5.32-4.99-.52-.05-1.05-.04-1.58.05-3.27.55-5.48 3.64-4.93 6.9a3.714 3.714 0 0 0 3.27 3.08c.33.03.66.02.99-.03.98-.16 1.83-.69 2.4-1.49.58-.81.81-1.79.64-2.77a3.704 3.704 0 0 0-4.27-3.05c-.5.08-.96.27-1.38.53.75-1.16 1.95-2.02 3.42-2.26 2.76-.45 5.38 1.42 5.84 4.18.12.73.15 1.68.05 2.5a.62.62 0 0 0-.07.19c-.24 1.95-1.85 4-3.93 5-.52.25-1.06.42-1.61.53m19.51 0c.77-.56 1.33-1.4 1.49-2.39.16-.98-.06-1.96-.64-2.76a3.663 3.663 0 0 0-2.41-1.5 3.714 3.714 0 0 0-3.63 5.82c.24.33.53.61.86.84h4.33zm-4.43-1.38a2.75 2.75 0 0 1-.48-2.08c.24-1.48 1.71-2.54 3.2-2.29.74.12 1.38.52 1.81 1.13.43.6.6 1.34.48 2.08a2.76 2.76 0 0 1-3.21 2.28c-.72-.12-1.37-.51-1.8-1.12zm-17.23-8.39c1.5-.25 2.96.81 3.2 2.29.12.74-.05 1.47-.48 2.08s-1.07 1-1.81 1.12c-.25.04-.5.05-.75.03a2.781 2.781 0 0 1-2.46-2.31c-.03-.19-.03-.37-.04-.56.02-.54.19-1.07.52-1.52.44-.6 1.08-1.01 1.82-1.13zm-35.3 9.77c-.08-.52-.17-1.04-.28-1.56.6.63 1.29 1.15 2.03 1.56zm9.67 0c.72-.41 1.27-.89 1.67-1.35 1.28-1.44 1.92-3.42 1.77-5.36 1.09.88 2.63 1.27 4.08.46.94-.52 1.47-1.84 1.19-2.95-.24-.95-1.03-1.52-2.09-1.53-.25 0-.46.2-.46.46 0 .25.22.46.46.46.82-.01 1.11.46 1.2.84.18.71-.16 1.6-.74 1.92-1.37.76-2.89.08-3.67-.99-.72-.99-.97-2.55.5-3.95.75-.72 1.62-1.04 2.66-.98.06.01.12.01.17.02 3.32.34 7.02 4.4 7.86 5.36 1.92 2.61 3.95 5.26 7.02 7.18.25.15.5.28.75.41m-33.8-9.28c.18-1.07 1-4.74 4.26-6.89 2.49-1.64 5.77-1.97 9.73-1 3.9.96 6.43 2.85 8.51 5.12-1.32-.92-2.79-1.67-4.25-1.82-.07-.01-.14-.01-.21-.02-1.28-.08-2.41.33-3.35 1.22-.89.85-1.26 1.75-1.34 2.6-1-1.08-2.39-1.84-3.94-2-.01 0-.03 0-.05-.01-.53-.05-1.16-.03-1.83.11h-.03c-.05.01-.1.03-.15.05-.17.04-.34.09-.51.15-.16.05-.3.11-.45.18-.03.01-.06.03-.1.05-.7.33-1.3.77-1.75 1.31-.05.06-.11.1-.16.16s-.08.12-.1.19c-.48.72-.77 1.55-.77 2.48 0 1.13.43 2.2 1.23 3s1.86 1.25 2.99 1.25c1.08 0 2.02-.49 2.58-1.36.6-.94.66-2.15.15-3.25-.32-.61-1.3-1.64-2.82-1.24a.46.46 0 0 0 .23.89c1.16-.29 1.71.66 1.77.77.36.78.33 1.67-.1 2.34-.39.61-1.03.94-1.8.94-.89 0-1.72-.35-2.34-.98s-.97-1.46-.97-2.35c0-.84.29-1.59.78-2.21.65-.68 1.34-1.09 2-1.32.08-.03.17-.05.25-.08.66-.19 1.29-.21 1.81-.17h.04c2.32.24 4.34 2.1 4.61 4.26.21 1.77-.35 3.61-1.52 4.92-.98 1.1-2.33 1.76-3.93 1.96h-2.06a7.167 7.167 0 0 1-4.6-2.53c-1.52-1.79-2.2-4.31-1.81-6.72zm-5.58 9.28c1.37-2.49 1.96-5.52 1.08-8.43-.59-1.95-1.42-3.56-2.27-4.86a25.25 25.25 0 0 1 5.11 6.59c1.1 2.06 1.84 4.21 2.24 6.39 0 .01-.01.02 0 .03 0 .01 0 .12-.01.28M43.62 4.18c3.8 1.69 5.51 6.16 3.81 9.96-1.69 3.8-6.16 5.51-9.96 3.81-3.8-1.69-5.51-6.16-3.82-9.96 1.71-3.79 6.18-5.5 9.97-3.81zm-6.98-2.47c1 .19 1.97.43 2.92.72a8.685 8.685 0 0 0-6.96 5.09 8.603 8.603 0 0 0-.74 3.62 5.97 5.97 0 0 0-2.79-1.8c-1.38-.41-2.76-.3-3.91-.02.07-.13.14-.27.21-.41a5.038 5.038 0 0 0-2.55-6.65 3.25 3.25 0 0 0-.17-.06c4.65-1.18 9.4-1.37 13.99-.49zM17.25 5.27c.43-.97 1.22-1.68 2.14-2.03s1.98-.35 2.95.08c1.95.87 2.83 3.17 1.96 5.11-.43.97-1.22 1.68-2.15 2.03-.92.35-1.98.35-2.95-.08-1.95-.86-2.82-3.15-1.95-5.11zM5.54 13.64c2.82-3.73 6.49-6.76 10.73-8.99-.03.05-.06.1-.08.16a5.038 5.038 0 0 0 2.55 6.65c.14.06.28.12.43.16-1.04.57-2.15 1.41-2.9 2.63-.59.96-.87 2.03-.87 3.21-.8-.91-1.8-1.67-2.97-2.19-2.91-1.3-6.15-.85-8.58.86.51-.85 1.07-1.68 1.69-2.49z" fill="url(#a)"/></svg>