<svg viewBox="0 0 18.92 61.28" xmlns="http://www.w3.org/2000/svg" xmlns:xlink="http://www.w3.org/1999/xlink"><linearGradient id="a"><stop offset="0" stop-color="#deb84a"/><stop offset=".262" stop-color="#cea036"/><stop offset=".479" stop-color="#c49129"/><stop offset=".685" stop-color="#bc8729"/><stop offset="1" stop-color="#a87029"/></linearGradient><radialGradient id="b" cx="35.863" cy="21.868" gradientTransform="rotate(90 9.459 30.641)" gradientUnits="userSpaceOnUse" r="6.374" xlink:href="#a"/><radialGradient id="c" cx="-1.116" cy="23.004" gradientTransform="rotate(90 9.459 30.641)" gradientUnits="userSpaceOnUse" r="26.286" xlink:href="#a"/><path d="M18.92 58.99v-2.84a3.692 3.692 0 0 0-2.81-2.23 3.69 3.69 0 0 0-4.25 3.04 3.694 3.694 0 0 0 3.05 4.26c.97.16 1.96-.06 2.76-.64.56-.4.98-.95 1.25-1.59zm-3.87 1.33a2.76 2.76 0 0 1-2.28-3.21c.12-.73.52-1.37 1.12-1.81a2.75 2.75 0 0 1 2.08-.48c1.48.24 2.54 1.71 2.29 3.2-.12.74-.52 1.38-1.13 1.81-.61.45-1.35.62-2.08.49z" fill="url(#b)"/><path d="M11.4.03C10.67-.03 9.93 0 9.21.11 8.04.3 4.06 1.2 1.7 4.77.32 6.87-.22 9.44.08 12.46c.09.89.25 1.81.49 2.78 1.58 6.41 5.65 9.4 9.58 12.3l.33.24c.09.08.17.14.19.16.03.02.06.04.1.05 2.45 1.81 4.92 3.75 6.67 6.57 1.51 2.43 1.75 5.03.66 7.3-.99 2.08-3.05 3.69-5 3.93-.07.01-.13.03-.19.07-.82.11-1.77.08-2.5-.05-2.76-.46-4.63-3.08-4.18-5.84a5.116 5.116 0 0 1 2.26-3.42c-.26.41-.45.88-.53 1.38-.06.33-.07.66-.03.99a3.714 3.714 0 0 0 5.85 2.64 3.69 3.69 0 0 0 1.49-2.4 3.694 3.694 0 0 0-3.05-4.26c-3.26-.54-6.35 1.67-6.9 4.93-.09.53-.1 1.07-.05 1.58a6.023 6.023 0 0 0 4.99 5.32c1.3.22 3.16.17 4.21-.33l.01-.01c1.82-.65 3.51-2.17 4.44-4.1v-6.86c-.2-.45-.42-.9-.7-1.35-1.92-3.07-4.57-5.1-7.18-7.02-.97-.84-5.03-4.54-5.36-7.86-.01-.06-.01-.12-.02-.17-.06-1.04.26-1.91.98-2.66 1.41-1.48 2.97-1.23 3.95-.5 1.07.79 1.75 2.3.99 3.67-.32.58-1.21.92-1.92.74-.38-.1-.84-.38-.84-1.2 0-.24-.21-.46-.46-.46s-.46.21-.46.46c0 1.06.58 1.85 1.53 2.09 1.11.28 2.43-.25 2.95-1.19.8-1.45.41-2.99-.46-4.08 1.94.16 3.92-.49 5.36-1.77a6.78 6.78 0 0 0 1.63-2.23V5.11a8.184 8.184 0 0 0-2.1-2.85c.01 0-2.06-2.26-5.41-2.23zM1.47 15.01c-.97-3.97-.64-7.24 1-9.73C4.62 2.02 8.29 1.2 9.36 1.02c2.4-.39 4.92.29 6.74 1.83a7.223 7.223 0 0 1 2.6 5.56c.01 2.09-.69 3.83-2.03 5.03-1.31 1.17-3.15 1.73-4.92 1.52-2.16-.27-4.03-2.29-4.26-4.61v-.04c-.06-.52-.03-1.15.16-1.82.02-.08.05-.17.07-.25.23-.66.64-1.35 1.32-2 .61-.49 1.36-.78 2.21-.78.89 0 1.72.34 2.35.97.63.62.98 1.46.98 2.34 0 .77-.33 1.41-.94 1.8-.67.43-1.56.46-2.34.1-.11-.06-1.05-.61-.77-1.77a.46.46 0 0 0-.89-.23c-.39 1.51.63 2.5 1.25 2.82 1.09.51 2.31.45 3.25-.15.87-.55 1.36-1.49 1.36-2.58-.01-1.13-.45-2.19-1.25-2.99s-1.87-1.23-3-1.23c-.92 0-1.76.28-2.48.77-.07.02-.13.05-.19.1s-.11.11-.16.16c-.55.46-.99 1.05-1.31 1.75-.02.03-.03.06-.05.1-.06.14-.13.29-.18.45-.06.17-.11.33-.15.49-.01.06-.04.11-.05.17v.04c-.15.67-.16 1.3-.11 1.83v.05c.16 1.55.92 2.94 2 3.94-.85.07-1.75.45-2.6 1.34-.89.94-1.3 2.06-1.22 3.35 0 .07.01.14.02.21.15 1.45.9 2.93 1.82 4.25-2.28-2.1-4.16-4.63-5.12-8.53zm10.04 20.74c.19.01.37 0 .56.04a2.76 2.76 0 0 1 2.31 2.46c.03.25.02.5-.03.75-.12.73-.52 1.37-1.12 1.81-.61.43-1.34.61-2.08.48-1.48-.24-2.54-1.71-2.29-3.2.12-.74.52-1.38 1.13-1.81.46-.33.98-.51 1.52-.53z" fill="url(#c)"/></svg>