<svg enable-background="new 0 0 68.92 24.51" viewBox="0 0 68.92 24.51" xmlns="http://www.w3.org/2000/svg" xmlns:xlink="http://www.w3.org/1999/xlink"><linearGradient id="a"><stop offset="0" stop-color="#be965d"/><stop offset=".4492" stop-color="#ffcb85"/><stop offset=".5691" stop-color="#eebc79"/><stop offset=".8068" stop-color="#c0935b"/><stop offset="1" stop-color="#976f40"/></linearGradient><linearGradient id="b" gradientTransform="matrix(0 -1 1 0 22.2077 46.7152)" gradientUnits="userSpaceOnUse" x1="-132.9566" x2="201.3707" xlink:href="#a" y1="12.2538" y2="12.2538"/><linearGradient id="c" gradientTransform="matrix(0 -1 1 0 22.2077 46.7152)" gradientUnits="userSpaceOnUse" x1="-132.9545" x2="201.3686" xlink:href="#a" y1="18.0245" y2="18.0245"/><path d="m18.3 5.14c-9.99 4.28-8.28 3.6-18.3 7.11 10.02 3.52 8.31 2.84 18.3 7.11 28.28 12.02 32.72.15 50.62-7.11-17.9-7.26-22.34-19.13-50.62-7.11zm1.74 10.27c-1.95-.89-3.95-1.82-6.02-2.73.12.05-.82-.36-.94-.41l.01-.01-.01-.01c.12-.05 1.07-.46.94-.41 2.07-.91 4.07-1.84 6.02-2.73 27.16-12.49 29.43-1.75 48.72 3.14-19.29 4.9-21.56 15.64-48.72 3.16z" fill="url(#b)"/><path d="m28.49 12.25c4.93 2.63 10.94 6.39 18.11 3.24 2.65-1.13 4.1-2.36 5.37-3.24-2.2.67-3.87 1.2-5.87 1.54-5.42.95-9.8-1.47-9.92-1.5v-.03l.02-.01-.02-.01v-.03c.12-.03 4.5-2.45 9.92-1.5 2 .34 3.67.87 5.87 1.54-1.27-.88-2.71-2.11-5.37-3.24-7.17-3.15-13.17.61-18.11 3.24z" fill="url(#c)"/></svg>