<?xml version="1.0" encoding="utf-8"?>
<!-- Generator: Adobe Illustrator 24.0.1, SVG Export Plug-In . SVG Version: 6.00 Build 0)  -->
<svg version="1.1" id="Layer_1" xmlns="http://www.w3.org/2000/svg" xmlns:xlink="http://www.w3.org/1999/xlink" x="0px" y="0px"
	 viewBox="0 0 136.58 136.58" style="enable-background:new 0 0 136.58 136.58;" xml:space="preserve">
<style type="text/css">
	.st0{fill:url(#SVGID_1_);}
	.st1{fill:#FFFFFF;}
</style>
<g>
	
		<radialGradient id="SVGID_1_" cx="23.3418" cy="106.9746" r="277.6654" fx="-62.3053" fy="94.5333" gradientTransform="matrix(0.6534 -0.757 0.6147 0.5306 -57.6653 67.8859)" gradientUnits="userSpaceOnUse">
		<stop  offset="0" style="stop-color:#F8ED33"/>
		<stop  offset="0.0513" style="stop-color:#F6DD47"/>
		<stop  offset="0.1565" style="stop-color:#F2BB66"/>
		<stop  offset="0.3046" style="stop-color:#EE8379"/>
		<stop  offset="0.4486" style="stop-color:#EE2E7B"/>
		<stop  offset="0.5777" style="stop-color:#BF4387"/>
		<stop  offset="0.7266" style="stop-color:#8E4E94"/>
		<stop  offset="0.8518" style="stop-color:#68539D"/>
		<stop  offset="0.9466" style="stop-color:#4A56A3"/>
		<stop  offset="1" style="stop-color:#3B57A6"/>
	</radialGradient>
	<path class="st0" d="M136.58,113.24c0,12.89-10.45,23.34-23.34,23.34h-89.9C10.45,136.58,0,126.13,0,113.24v-89.9
		C0,10.45,10.45,0,23.34,0h89.9c12.89,0,23.34,10.45,23.34,23.34V113.24z"/>
	<g>
		<g>
			<path class="st1" d="M90.04,122.47h-43.5c-19.3,0-35.01-15.71-35.01-35.01V49.13c0-19.3,15.71-35.01,35.01-35.01h43.5
				c19.3,0,35.01,15.71,35.01,35.01v38.33C125.05,106.76,109.34,122.47,90.04,122.47z M46.54,21.9c-15.02,0-27.23,12.22-27.23,27.23
				v38.33c0,15.01,12.21,27.23,27.23,27.23h43.5c15.01,0,27.23-12.22,27.23-27.23V49.13c0-15.01-12.22-27.23-27.23-27.23H46.54z"/>
		</g>
		<g>
			<path class="st1" d="M68.29,99.46c-17.19,0-31.16-13.98-31.16-31.16c0-17.18,13.98-31.17,31.16-31.17
				c17.18,0,31.16,13.98,31.16,31.17C99.45,85.48,85.48,99.46,68.29,99.46z M68.29,44.91c-12.89,0-23.39,10.49-23.39,23.38
				c0,12.89,10.49,23.38,23.39,23.38c12.89,0,23.38-10.49,23.38-23.38C91.67,55.4,81.18,44.91,68.29,44.91z"/>
		</g>
		<g>
			<path class="st1" d="M105.44,38.09c0,3.57-2.89,6.46-6.46,6.46c-3.57,0-6.47-2.89-6.47-6.46c0-3.57,2.9-6.47,6.47-6.47
				C102.55,31.62,105.44,34.51,105.44,38.09z"/>
		</g>
	</g>
</g>
</svg>
