<?xml version="1.0" encoding="utf-8"?>
<!-- Generator: Adobe Illustrator 24.0.1, SVG Export Plug-In . SVG Version: 6.00 Build 0)  -->
<svg version="1.1" id="Layer_1" xmlns="http://www.w3.org/2000/svg" xmlns:xlink="http://www.w3.org/1999/xlink" x="0px" y="0px"
	 viewBox="0 0 233.88 73.2" style="enable-background:new 0 0 233.88 73.2;" xml:space="preserve">
<style type="text/css">
	.st0{fill:url(#SVGID_1_);}
	.st1{fill:url(#SVGID_2_);}
	.st2{fill:url(#SVGID_3_);}
	.st3{fill:url(#SVGID_4_);}
	.st4{fill:url(#SVGID_5_);}
</style>
<g>
	
		<radialGradient id="SVGID_1_" cx="229.6471" cy="0.6852" r="6.3743" gradientTransform="matrix(1 0 0 1 6.218136e-06 8.587562e-06)" gradientUnits="userSpaceOnUse">
		<stop  offset="0" style="stop-color:#DEB84A"/>
		<stop  offset="0.2623" style="stop-color:#CEA036"/>
		<stop  offset="0.4788" style="stop-color:#C49129"/>
		<stop  offset="0.6853" style="stop-color:#BC8729"/>
		<stop  offset="1" style="stop-color:#A87029"/>
	</radialGradient>
	<path class="st0" d="M231.6,0h-2.84c-1.15,0.48-2.02,1.52-2.23,2.81c-0.16,0.97,0.06,1.96,0.64,2.76c0.58,0.8,1.43,1.33,2.4,1.49
		c0.33,0.05,0.66,0.07,0.99,0.03c1.66-0.17,3-1.43,3.27-3.08c0.16-0.97-0.06-1.96-0.64-2.76C232.78,0.69,232.23,0.26,231.6,0z
		 M232.93,3.87c-0.2,1.24-1.21,2.19-2.46,2.31c-0.25,0.02-0.5,0.02-0.75-0.03c-0.73-0.12-1.37-0.52-1.81-1.12
		c-0.43-0.61-0.61-1.34-0.48-2.08c0.24-1.48,1.71-2.54,3.2-2.29c0.74,0.12,1.38,0.52,1.81,1.13C232.88,2.4,233.05,3.14,232.93,3.87z
		"/>
	
		<radialGradient id="SVGID_2_" cx="192.6685" cy="1.8212" r="26.2861" gradientTransform="matrix(1 0 0 1 6.218136e-06 8.587562e-06)" gradientUnits="userSpaceOnUse">
		<stop  offset="0" style="stop-color:#DEB84A"/>
		<stop  offset="0.2623" style="stop-color:#CEA036"/>
		<stop  offset="0.4788" style="stop-color:#C49129"/>
		<stop  offset="0.6853" style="stop-color:#BC8729"/>
		<stop  offset="1" style="stop-color:#A87029"/>
	</radialGradient>
	<path class="st1" d="M172.63,7.52c-0.05,0.73-0.03,1.46,0.09,2.19c0.19,1.16,1.09,5.15,4.66,7.51c2.1,1.38,4.67,1.92,7.69,1.62
		c0.89-0.09,1.81-0.25,2.78-0.49c6.41-1.58,9.4-5.65,12.3-9.58c0.08-0.11,0.16-0.22,0.24-0.33c0.08-0.09,0.14-0.17,0.16-0.19
		c0.02-0.03,0.04-0.06,0.05-0.1c1.81-2.45,3.75-4.92,6.57-6.67c2.43-1.51,5.03-1.75,7.3-0.66c2.08,0.99,3.69,3.05,3.93,5
		c0.01,0.07,0.03,0.13,0.07,0.19c0.11,0.82,0.08,1.77-0.05,2.5c-0.46,2.76-3.08,4.63-5.84,4.18c-1.46-0.25-2.67-1.11-3.42-2.26
		c0.41,0.26,0.88,0.45,1.38,0.53c0.33,0.06,0.66,0.07,0.99,0.03c1.66-0.17,3-1.43,3.28-3.08c0.16-0.97-0.06-1.96-0.64-2.77
		c-0.58-0.8-1.43-1.33-2.4-1.49c-0.33-0.05-0.66-0.07-0.99-0.03c-1.66,0.17-3,1.43-3.27,3.08c-0.54,3.26,1.67,6.35,4.93,6.9
		c0.53,0.09,1.07,0.1,1.58,0.05c2.63-0.27,4.86-2.26,5.32-4.99c0.22-1.3,0.17-3.16-0.33-4.21c0,0-0.01-0.01-0.01-0.01
		c-0.65-1.82-2.17-3.51-4.1-4.44h-6.86c-0.45,0.2-0.9,0.42-1.35,0.7c-3.07,1.92-5.1,4.57-7.02,7.18c-0.84,0.97-4.54,5.03-7.86,5.36
		c-0.06,0.01-0.12,0.01-0.17,0.02c-1.04,0.06-1.91-0.26-2.66-0.98c-1.48-1.41-1.23-2.97-0.5-3.95c0.79-1.07,2.3-1.75,3.67-0.99
		c0.58,0.32,0.92,1.21,0.74,1.92c-0.1,0.38-0.38,0.84-1.2,0.84c-0.24,0-0.46,0.21-0.46,0.46s0.21,0.46,0.46,0.46
		c1.06,0,1.85-0.58,2.09-1.53c0.28-1.11-0.25-2.43-1.19-2.95c-1.45-0.8-2.99-0.41-4.08,0.46c0.16-1.94-0.49-3.92-1.77-5.36
		c-0.5-0.56-1.23-1.17-2.23-1.63h-6.78c-1.07,0.47-2.04,1.18-2.85,2.1C174.86,2.1,172.6,4.17,172.63,7.52z M187.61,17.45
		c-3.97,0.97-7.24,0.64-9.73-1c-3.26-2.15-4.08-5.82-4.26-6.89c-0.39-2.4,0.29-4.92,1.83-6.74c1.4-1.66,3.38-2.59,5.56-2.6
		c2.09-0.01,3.83,0.69,5.03,2.03c1.17,1.31,1.73,3.15,1.52,4.92c-0.27,2.16-2.29,4.03-4.61,4.26c-0.01,0-0.03,0-0.04,0
		c-0.52,0.05-1.15,0.02-1.82-0.17c-0.08-0.02-0.17-0.05-0.25-0.07c-0.66-0.23-1.35-0.64-2-1.32c-0.49-0.61-0.78-1.36-0.78-2.21
		c0-0.89,0.34-1.72,0.97-2.35c0.62-0.63,1.46-0.98,2.34-0.98c0.77,0,1.41,0.33,1.8,0.94c0.43,0.67,0.46,1.56,0.1,2.34
		c-0.06,0.11-0.61,1.05-1.77,0.77c-0.24-0.06-0.5,0.08-0.56,0.33c-0.06,0.25,0.08,0.5,0.33,0.56c1.51,0.39,2.5-0.63,2.82-1.25
		c0.51-1.09,0.45-2.31-0.15-3.25c-0.55-0.87-1.49-1.36-2.58-1.36c-1.13,0.01-2.19,0.45-2.99,1.25c-0.8,0.8-1.23,1.87-1.23,3
		c0,0.92,0.28,1.76,0.77,2.48c0.02,0.07,0.05,0.14,0.1,0.19c0.05,0.06,0.11,0.11,0.16,0.16c0.45,0.54,1.05,0.98,1.75,1.31
		c0.03,0.02,0.06,0.03,0.1,0.05c0.15,0.07,0.3,0.13,0.45,0.18c0.17,0.06,0.33,0.11,0.49,0.15c0.06,0.01,0.11,0.04,0.17,0.05
		c0.01,0,0.02,0,0.04,0c0.67,0.15,1.3,0.16,1.83,0.11c0.02,0,0.04,0,0.05,0c1.55-0.16,2.94-0.92,3.94-2
		c0.07,0.85,0.45,1.75,1.34,2.6c0.94,0.89,2.06,1.3,3.35,1.22c0.07,0,0.14-0.01,0.21-0.02c1.45-0.15,2.93-0.9,4.25-1.82
		C194.04,14.61,191.51,16.49,187.61,17.45z M208.35,7.4c0.01-0.19,0-0.37,0.04-0.56c0.2-1.24,1.21-2.19,2.46-2.31
		c0.25-0.03,0.5-0.02,0.75,0.03c0.73,0.12,1.37,0.52,1.81,1.12c0.43,0.61,0.61,1.34,0.48,2.08c-0.24,1.48-1.71,2.54-3.2,2.29
		c-0.74-0.12-1.38-0.52-1.81-1.13C208.55,8.47,208.37,7.94,208.35,7.4z"/>
</g>
<g>
	
		<radialGradient id="SVGID_3_" cx="-4.7331" cy="0.6852" r="6.3743" gradientTransform="matrix(-1 0 0 1 -0.4963 8.948728e-06)" gradientUnits="userSpaceOnUse">
		<stop  offset="0" style="stop-color:#DEB84A"/>
		<stop  offset="0.2623" style="stop-color:#CEA036"/>
		<stop  offset="0.4788" style="stop-color:#C49129"/>
		<stop  offset="0.6853" style="stop-color:#BC8729"/>
		<stop  offset="1" style="stop-color:#A87029"/>
	</radialGradient>
	<path class="st2" d="M0.69,1.26c-0.58,0.8-0.8,1.79-0.64,2.76C0.32,5.67,1.67,6.93,3.33,7.1c0.33,0.03,0.66,0.02,0.99-0.03
		c0.97-0.16,1.83-0.69,2.4-1.49C7.3,4.77,7.52,3.78,7.36,2.81C7.15,1.52,6.28,0.48,5.13,0L2.29,0C1.65,0.26,1.1,0.69,0.69,1.26z
		 M1.44,1.79c0.43-0.61,1.08-1.01,1.81-1.13c1.5-0.25,2.96,0.81,3.2,2.29c0.12,0.74-0.05,1.47-0.48,2.08
		c-0.43,0.61-1.08,1-1.81,1.12C3.92,6.2,3.67,6.21,3.42,6.19C2.17,6.06,1.16,5.11,0.96,3.87C0.84,3.14,1.01,2.4,1.44,1.79z"/>
	
		<radialGradient id="SVGID_4_" cx="-41.7117" cy="1.8212" r="26.2861" gradientTransform="matrix(-1 0 0 1 -0.4963 8.948728e-06)" gradientUnits="userSpaceOnUse">
		<stop  offset="0" style="stop-color:#DEB84A"/>
		<stop  offset="0.2623" style="stop-color:#CEA036"/>
		<stop  offset="0.4788" style="stop-color:#C49129"/>
		<stop  offset="0.6853" style="stop-color:#BC8729"/>
		<stop  offset="1" style="stop-color:#A87029"/>
	</radialGradient>
	<path class="st3" d="M59.02,2.1c-0.81-0.92-1.77-1.62-2.85-2.1l-6.78,0c-1,0.46-1.73,1.07-2.23,1.63
		c-1.28,1.43-1.92,3.42-1.77,5.36c-1.09-0.88-2.63-1.27-4.08-0.46c-0.94,0.52-1.47,1.84-1.19,2.95c0.24,0.95,1.03,1.52,2.09,1.53
		c0.25,0,0.46-0.2,0.46-0.46s-0.22-0.46-0.46-0.46c-0.82,0-1.11-0.46-1.2-0.84c-0.18-0.71,0.16-1.6,0.74-1.92
		c1.37-0.76,2.89-0.08,3.67,0.99c0.72,0.99,0.97,2.54-0.5,3.95c-0.75,0.72-1.62,1.04-2.66,0.98c-0.06-0.01-0.12-0.01-0.17-0.02
		c-3.31-0.34-7.02-4.39-7.86-5.36c-1.92-2.61-3.95-5.26-7.02-7.18c-0.44-0.28-0.9-0.5-1.35-0.7l-6.86,0
		c-1.93,0.93-3.45,2.62-4.1,4.44c0,0-0.01,0.01-0.01,0.01c-0.5,1.05-0.55,2.91-0.33,4.21c0.45,2.72,2.69,4.72,5.32,4.99
		c0.52,0.05,1.05,0.04,1.58-0.05c3.27-0.55,5.48-3.64,4.93-6.9c-0.27-1.64-1.62-2.91-3.27-3.08c-0.33-0.03-0.66-0.02-0.99,0.03
		c-0.98,0.16-1.83,0.69-2.4,1.49c-0.58,0.81-0.81,1.79-0.64,2.77c0.27,1.65,1.62,2.91,3.28,3.08c0.33,0.03,0.66,0.02,0.99-0.03
		c0.5-0.08,0.96-0.26,1.38-0.53c-0.75,1.16-1.95,2.02-3.42,2.26c-2.76,0.45-5.38-1.42-5.84-4.18c-0.12-0.73-0.15-1.68-0.05-2.5
		c0.03-0.06,0.06-0.12,0.07-0.19c0.24-1.95,1.85-4,3.93-5c2.28-1.09,4.87-0.86,7.3,0.66c2.82,1.76,4.75,4.23,6.57,6.67
		c0.02,0.03,0.03,0.07,0.05,0.1c0.02,0.02,0.08,0.09,0.16,0.19c0.08,0.11,0.16,0.22,0.24,0.33c2.9,3.93,5.89,7.99,12.3,9.58
		c0.96,0.24,1.89,0.4,2.78,0.49c3.01,0.31,5.59-0.23,7.69-1.62c3.57-2.36,4.47-6.34,4.66-7.51c0.12-0.73,0.14-1.46,0.09-2.19
		C61.28,4.17,59.02,2.1,59.02,2.1z M37.76,12.34c1.32,0.92,2.8,1.67,4.25,1.82c0.07,0.01,0.14,0.01,0.21,0.02
		c1.28,0.08,2.41-0.33,3.35-1.22c0.89-0.85,1.26-1.75,1.34-2.6c1,1.08,2.39,1.84,3.94,2c0.01,0,0.03,0,0.05,0
		c0.53,0.05,1.16,0.03,1.83-0.11c0.01,0,0.02,0,0.04,0c0.06-0.01,0.11-0.04,0.17-0.05c0.16-0.04,0.33-0.09,0.49-0.15
		c0.16-0.05,0.31-0.12,0.45-0.18c0.03-0.01,0.06-0.03,0.1-0.05c0.7-0.33,1.29-0.77,1.75-1.31c0.05-0.06,0.11-0.1,0.16-0.16
		c0.05-0.06,0.08-0.12,0.1-0.19c0.48-0.72,0.77-1.55,0.77-2.48c0-1.13-0.43-2.2-1.23-3c-0.8-0.8-1.86-1.24-2.99-1.25
		c-1.08,0-2.02,0.49-2.58,1.36c-0.6,0.94-0.66,2.16-0.15,3.25c0.32,0.61,1.3,1.64,2.82,1.25C52.85,9.2,53,8.95,52.94,8.7
		c-0.06-0.24-0.32-0.39-0.56-0.33c-1.16,0.29-1.71-0.66-1.77-0.77c-0.36-0.78-0.33-1.67,0.1-2.34c0.39-0.61,1.03-0.94,1.8-0.94
		c0.89,0,1.72,0.35,2.34,0.98c0.62,0.63,0.97,1.46,0.97,2.35c0,0.84-0.29,1.59-0.78,2.21c-0.65,0.68-1.34,1.09-2,1.32
		c-0.08,0.03-0.16,0.05-0.25,0.07c-0.67,0.19-1.3,0.21-1.82,0.17c-0.01,0-0.03,0-0.04,0c-2.32-0.24-4.34-2.1-4.61-4.26
		c-0.21-1.77,0.35-3.61,1.52-4.92c1.19-1.34,2.93-2.04,5.03-2.03c2.19,0.01,4.16,0.94,5.56,2.6c1.54,1.82,2.22,4.34,1.83,6.74
		c-0.18,1.07-1,4.74-4.26,6.89c-2.49,1.64-5.77,1.97-9.73,1C42.37,16.49,39.84,14.61,37.76,12.34z M25.01,8.92
		c-0.43,0.61-1.08,1.01-1.81,1.13c-1.5,0.25-2.96-0.81-3.2-2.29c-0.12-0.74,0.05-1.47,0.48-2.08c0.43-0.61,1.07-1,1.81-1.12
		c0.25-0.04,0.5-0.05,0.75-0.03c1.25,0.13,2.26,1.08,2.46,2.31c0.03,0.19,0.03,0.37,0.04,0.56C25.51,7.94,25.34,8.47,25.01,8.92z"/>
</g>
<radialGradient id="SVGID_5_" cx="111.7039" cy="-8.3421" r="90.1688" gradientTransform="matrix(6.123234e-17 1 -1 6.123234e-17 153.5429 -80.341)" gradientUnits="userSpaceOnUse">
	<stop  offset="0" style="stop-color:#DDB749"/>
	<stop  offset="0.2623" style="stop-color:#CC9F37"/>
	<stop  offset="0.4788" style="stop-color:#C1902C"/>
	<stop  offset="0.6901" style="stop-color:#B9862B"/>
	<stop  offset="1" style="stop-color:#A77029"/>
</radialGradient>
<path class="st4" d="M122.84,67.34c0-1.18-0.35-2.28-0.96-3.21c0.86-0.01,1.92-0.29,3.11-1.19c2.02-1.53,1.92-3.44,1.15-4.73
	c-0.89-1.51-2.96-2.63-4.61-1.89c-0.29,0.13-0.42,0.48-0.29,0.78c0.13,0.29,0.48,0.43,0.77,0.29c0.94-0.42,2.42,0.25,3.12,1.42
	c0.39,0.66,0.8,1.95-0.85,3.2c-1.14,0.86-2.22,1.14-3.23,0.84c-1.47-0.44-2.5-2.01-2.93-3.22c-0.59-1.64-0.2-6.76,8.51-10.76
	c8.9-4.08,12.32-7.76,11.82-12.7c-0.17-1.63-0.81-3.21-1.77-4.53c0.72,0.31,1.44,0.61,2.17,0.87c8,2.81,16.48,2.02,23.28-2.16
	c6.62-4.08,10.44-10.93,10.48-18.81c0.02-4.21-1.05-8.24-2.93-11.55h-1.36c1.99,3.22,3.13,7.29,3.11,11.54
	c-0.02,3.77-0.95,7.29-2.67,10.34c0.27-2.14-0.03-4.95-2.24-7.81c-3.08-4-7.88-4.18-10.77-3.85c0.84-1,1.22-2.21,1.05-3.5
	c-0.26-1.97-1.73-3.74-3.43-4.12c-1.8-0.4-3.21,0.52-3.94,1.52c-0.71,0.97-0.87,2.1-0.41,2.88c0.16,0.28,0.53,0.37,0.8,0.2
	c0.28-0.17,0.37-0.52,0.2-0.8c-0.21-0.35-0.06-1.02,0.35-1.59c0.24-0.34,1.17-1.42,2.74-1.07c1.2,0.27,2.34,1.67,2.53,3.13
	c0.21,1.57-0.66,2.94-2.42,3.86c-1.86,0.96-3.99,0.71-5.71-0.67c-0.78-0.62-1.5-1.53-2-2.69c-0.11-0.48-0.2-0.79-0.22-0.85
	c-0.03-0.1-0.09-0.18-0.16-0.25c-0.35-1.37-0.4-2.99,0.1-4.84c0.13-0.48,0.3-0.96,0.49-1.43h-1.26c-0.14,0.37-0.26,0.74-0.36,1.13
	c-0.37,1.38-0.46,2.65-0.37,3.81c-0.85,0.22-3.1,0.65-4.36-0.33c-0.7-0.54-1.01-1.5-0.92-2.84c0.04-0.65,0.2-1.24,0.43-1.77h-2.5
	c0.25,0.61,0.43,1.22,0.55,1.81c0.34,1.68-0.36,3.78-1.79,5.34c-0.87,0.96-2.78,2.52-5.76,2.2c-2.73-0.3-3.49-2.99-3.65-3.81
	c-0.4-1.93,0.11-3.78,1.19-4.4c0.91-0.51,1.66-0.61,2.24-0.28c0.76,0.43,1.24,1.59,1.28,3.12c0.01,0.33,0.28,0.58,0.6,0.57
	c0.32-0.01,0.58-0.28,0.57-0.6c-0.06-1.82-0.65-3.23-1.65-3.94h-3.38c-0.08,0.04-0.16,0.07-0.24,0.12c-1.55,0.88-2.27,3.2-1.76,5.66
	c0.43,2.09,1.88,4.44,4.67,4.74c2.59,0.28,4.99-0.64,6.75-2.57c0.88-0.96,1.52-2.1,1.87-3.27c0.2,0.33,0.47,0.62,0.77,0.86
	c1.41,1.1,3.53,0.91,4.77,0.67c-0.45,1.4-1.55,4.12-3.78,6.36c-1.19,1.19-2.71,2.25-4.63,2.89c-8.1,2.72-14.84-2.37-16.59-7.1
	c-0.6-1.62-0.58-3.74-0.07-5.83c0.39-0.75,0.93-1.64,1.65-2.52h-2.05c-0.21,0.52-0.4,1.06-0.56,1.6c-0.2,0.36-0.37,0.71-0.51,1.02
	c-0.08-0.18-0.19-0.38-0.29-0.58c-0.18-0.69-0.41-1.37-0.69-2.04h-2.09c0.73,0.92,1.34,2,1.78,2.88c0.43,1.97,0.43,3.95-0.14,5.47
	c-1.75,4.73-8.49,9.82-16.59,7.1c-1.92-0.64-3.43-1.7-4.62-2.89c-2.23-2.23-3.33-4.95-3.79-6.35c1.25,0.25,3.36,0.43,4.77-0.67
	c0.31-0.24,0.57-0.53,0.77-0.86c0.35,1.16,0.99,2.31,1.86,3.27c1.77,1.94,4.17,2.86,6.76,2.57c2.79-0.3,4.24-2.65,4.67-4.74
	c0.5-2.45-0.22-4.78-1.77-5.65c-0.08-0.05-0.16-0.08-0.24-0.12h-3.38c-0.99,0.71-1.59,2.11-1.65,3.94c-0.01,0.32,0.24,0.59,0.57,0.6
	c0.32,0.01,0.59-0.25,0.6-0.57c0.04-1.52,0.53-2.69,1.28-3.12c0.58-0.33,1.34-0.23,2.24,0.28c1.09,0.62,1.59,2.47,1.2,4.4
	c-0.17,0.82-0.93,3.52-3.66,3.81c-2.98,0.33-4.89-1.24-5.76-2.2c-1.43-1.57-2.12-3.67-1.78-5.34c0.12-0.59,0.3-1.2,0.55-1.81h-2.5
	c0.23,0.54,0.39,1.12,0.43,1.77c0.09,1.33-0.22,2.29-0.92,2.84C93.25,5.59,91,5.15,90.15,4.94c0.09-1.16-0.01-2.43-0.37-3.81
	c-0.1-0.38-0.23-0.76-0.37-1.13h-1.26c0.19,0.47,0.36,0.94,0.49,1.43c0.49,1.85,0.45,3.47,0.1,4.84c-0.07,0.07-0.13,0.15-0.16,0.25
	c-0.02,0.06-0.11,0.37-0.21,0.85c-0.5,1.16-1.23,2.07-2,2.69c-1.72,1.38-3.85,1.63-5.7,0.66c-1.76-0.91-2.62-2.28-2.42-3.85
	c0.19-1.46,1.32-2.86,2.53-3.13c1.56-0.35,2.49,0.73,2.74,1.07c0.41,0.57,0.56,1.24,0.35,1.59c-0.16,0.28-0.07,0.64,0.21,0.8
	c0.28,0.16,0.64,0.07,0.8-0.21c0.46-0.77,0.29-1.9-0.42-2.88c-0.72-1-2.14-1.93-3.94-1.53c-1.7,0.38-3.18,2.16-3.43,4.12
	c-0.17,1.3,0.21,2.5,1.05,3.51c-2.89-0.33-7.7-0.15-10.77,3.84c-2.21,2.86-2.51,5.67-2.24,7.81c-1.72-3.06-2.66-6.58-2.67-10.34
	C62.43,7.29,63.58,3.22,65.56,0h-1.36c-1.87,3.3-2.94,7.34-2.92,11.55c0.03,7.87,3.85,14.73,10.47,18.81
	c6.79,4.19,15.28,4.98,23.28,2.17c0.73-0.26,1.45-0.56,2.17-0.87c-0.97,1.31-1.6,2.9-1.77,4.53c-0.5,4.93,2.92,8.61,11.82,12.7
	c8.72,4,9.1,9.12,8.51,10.76c-0.44,1.21-1.47,2.78-2.93,3.22c-1.01,0.3-2.09,0.02-3.23-0.84c-1.65-1.25-1.24-2.54-0.85-3.2
	c0.69-1.17,2.18-1.84,3.12-1.42c0.3,0.13,0.64,0,0.77-0.29c0.13-0.29,0-0.64-0.29-0.78c-1.64-0.74-3.71,0.38-4.6,1.89
	c-0.77,1.29-0.87,3.21,1.15,4.73c1.22,0.93,2.31,1.19,3.18,1.19c-0.61,0.92-0.96,2.02-0.96,3.21c0,3.23,2.63,5.86,5.86,5.86
	C120.21,73.2,122.84,70.57,122.84,67.34z M141.26,30.77c-2.75-2.75-2.75-7.22,0-9.97c2.75-2.75,7.22-2.75,9.97,0
	c2.75,2.75,2.75,7.22,0,9.97C148.48,33.52,144.01,33.52,141.26,30.77z M165.59,14.79c4.05,5.25,0.97,10.22,0.94,10.27
	c-0.01,0-0.01,0.02-0.01,0.03c-1.4,1.64-3.08,3.08-5.01,4.27c-2.48,1.53-5.2,2.58-8.04,3.14c1.29-0.67,2.76-1.63,4.25-3.02
	c4.73-4.41,5.27-10.24,1.35-14.86c-1.31-1.54-2.71-2.54-3.76-3.14C157.84,11.12,162.69,11.02,165.59,14.79z M146.78,10.97
	c2.01,1.62,4.5,1.94,6.71,0.9c0.64,0.27,2.79,1.27,4.68,3.5c3.53,4.16,3.05,9.24-1.26,13.25c-2.01,1.87-3.98,2.92-5.45,3.5
	c0.2-0.17,0.4-0.34,0.59-0.53c3.2-3.21,3.2-8.42,0-11.63c-2.11-2.11-5.1-2.83-7.8-2.15c1.61-2.41,1.83-5.37,1.66-7.66
	C146.2,10.46,146.48,10.74,146.78,10.97z M144.26,7.39c0.04,0.1,0.07,0.2,0.11,0.3c0.47,2.27,1.31,8.53-3.11,11.49
	c-1.5,1.01-2.98,1.34-4.39,1c-1.95-0.47-3.34-2.12-3.97-3c0.82-0.14,1.64-0.34,2.49-0.62C140.83,14.73,143.28,10.04,144.26,7.39z
	 M131.6,17.34c0.41,0.68,2.16,3.3,5,3.98c0.9,0.22,1.82,0.21,2.74,0c-2.06,3.18-1.7,7.49,1.09,10.28c0.11,0.11,0.22,0.2,0.34,0.31
	c-0.51-0.15-1.03-0.31-1.54-0.49c-5.83-2.05-10.95-5.91-14.88-11.07c-0.37-0.75-0.85-1.45-1.46-2.08c-1.13-1.72-2.14-3.56-3-5.5
	C122.54,15.57,126.71,17.71,131.6,17.34z M123.34,20.94c1.24,2.62,0.79,5.85-1.37,8.01c-1.39,1.39-3.21,2.07-5.03,2.06
	c-1.82,0.01-3.65-0.67-5.03-2.06c-2.17-2.16-2.61-5.39-1.37-8.01c0.48-0.63,0.94-1.29,1.38-1.96c1.39-1.38,3.21-2.07,5.02-2.05
	c1.82-0.01,3.64,0.67,5.02,2.05C122.41,19.65,122.86,20.3,123.34,20.94z M116.31,10.15c0.23-0.63,0.43-1.27,0.63-1.91
	c0.19,0.64,0.4,1.28,0.63,1.91c0.8,2.25,1.79,4.38,2.91,6.38c-1.12-0.52-2.33-0.79-3.54-0.78c-1.21-0.01-2.42,0.26-3.54,0.78
	C114.53,14.53,115.51,12.4,116.31,10.15z M89.5,7.69c0.04-0.1,0.08-0.2,0.11-0.3c0.98,2.65,3.44,7.34,8.88,9.17
	c0.84,0.28,1.67,0.49,2.48,0.62c-0.62,0.88-2.01,2.53-3.97,3c-1.41,0.34-2.89,0-4.39-1C88.2,16.22,89.03,9.95,89.5,7.69z
	 M87.1,10.97c0.3-0.24,0.59-0.52,0.86-0.82c-0.16,2.29,0.06,5.25,1.66,7.66c-2.71-0.67-5.69,0.04-7.8,2.16
	c-3.2,3.2-3.2,8.42,0,11.62c0.19,0.19,0.39,0.37,0.59,0.54c-1.47-0.58-3.45-1.64-5.45-3.5c-4.3-4.01-4.79-9.08-1.25-13.25
	c1.89-2.23,4.03-3.23,4.68-3.5C82.6,12.91,85.09,12.59,87.1,10.97z M72.37,29.36c-1.93-1.19-3.61-2.63-5.01-4.27
	c0-0.01,0-0.02,0-0.03c-0.04-0.05-3.11-5.02,0.94-10.27c2.9-3.76,7.74-3.67,10.28-3.31c-1.05,0.6-2.45,1.6-3.76,3.14
	c-3.91,4.62-3.38,10.46,1.35,14.86c1.49,1.39,2.95,2.35,4.25,3.02C77.57,31.93,74.85,30.88,72.37,29.36z M82.65,30.77
	c-2.75-2.75-2.75-7.22,0-9.97c2.75-2.75,7.22-2.75,9.97,0c2.75,2.75,2.75,7.22,0,9.97C89.87,33.52,85.4,33.52,82.65,30.77z
	 M93.11,31.9c0.12-0.1,0.23-0.2,0.34-0.31c2.79-2.79,3.15-7.09,1.09-10.28c0.92,0.22,1.84,0.23,2.75,0.01
	c2.83-0.69,4.58-3.31,5-3.98c4.89,0.37,9.06-1.76,11.71-4.58c-0.87,1.94-1.88,3.78-3.01,5.5c-0.6,0.63-1.09,1.34-1.46,2.09
	c-3.93,5.16-9.05,9.02-14.88,11.07C94.14,31.59,93.62,31.75,93.11,31.9z M107.74,47.81c-9.76-4.48-11.51-7.84-11.14-11.51
	c0.24-2.31,1.55-4.52,3.42-5.76c1.11-0.73,2.94-1.46,5.3-0.72c2.26,0.7,3.98,2.54,4.5,4.8c0.45,1.92-0.06,3.8-1.35,5.03
	c-1.71,1.63-3.91,1.49-5.22,0.66c-1.11-0.7-1.55-1.82-1.17-2.99c0.28-0.87,0.72-1.43,1.31-1.66c1.08-0.43,2.38,0.27,2.39,0.27
	c0.28,0.16,0.64,0.05,0.79-0.23c0.16-0.28,0.06-0.64-0.23-0.8c-0.08-0.04-1.79-0.97-3.38-0.34c-0.94,0.37-1.61,1.17-2,2.4
	c-0.54,1.69,0.1,3.35,1.66,4.33c1.68,1.06,4.48,1.26,6.65-0.8c1.6-1.52,2.23-3.81,1.69-6.14c-0.33-1.42-1.06-2.7-2.07-3.71
	c-0.89-0.89-1.99-1.57-3.22-1.95c-0.98-0.3-1.88-0.4-2.7-0.35c2.08-1.5,4.01-3.24,5.75-5.21c-0.24,2.37,0.55,4.82,2.36,6.63
	c1.61,1.61,3.74,2.41,5.86,2.4c2.12,0.01,4.24-0.79,5.86-2.4c1.81-1.81,2.6-4.26,2.36-6.63c1.74,1.97,3.67,3.71,5.75,5.21
	c-0.82-0.05-1.72,0.05-2.7,0.35c-1.24,0.39-2.34,1.07-3.23,1.95c-1.01,1.01-1.74,2.29-2.07,3.71c-0.54,2.33,0.09,4.62,1.69,6.14
	c2.17,2.06,4.97,1.86,6.65,0.8c1.57-0.98,2.2-2.65,1.66-4.33c-0.39-1.22-1.07-2.02-2-2.39c-1.59-0.63-3.31,0.3-3.38,0.34
	c-0.28,0.16-0.39,0.52-0.23,0.8c0.16,0.28,0.52,0.39,0.8,0.23c0.01-0.01,1.32-0.7,2.39-0.27c0.59,0.24,1.03,0.8,1.31,1.66
	c0.38,1.17-0.06,2.29-1.17,2.99c-1.31,0.82-3.5,0.97-5.22-0.66c-1.29-1.23-1.8-3.11-1.35-5.03c0.52-2.26,2.25-4.1,4.5-4.81
	c2.36-0.74,4.19-0.02,5.3,0.72c1.87,1.24,3.18,3.44,3.42,5.76c0.37,3.67-1.38,7.03-11.14,11.51c-6.19,2.85-8.57,6.33-9.2,9.03
	C116.31,54.14,113.93,50.66,107.74,47.81z M116.87,60.03c0.03-0.07,0.05-0.15,0.08-0.23c0.02,0.08,0.05,0.16,0.08,0.23
	c0.18,0.49,0.43,1.01,0.75,1.51c-0.26-0.04-0.52-0.06-0.79-0.06c-0.3,0-0.58,0.03-0.87,0.07C116.43,61.05,116.69,60.52,116.87,60.03
	z M112.29,67.34c0-2.59,2.1-4.69,4.69-4.69c2.58,0,4.69,2.1,4.69,4.69c0,2.58-2.1,4.68-4.69,4.68
	C114.39,72.03,112.29,69.93,112.29,67.34z"/>
</svg>
