<svg viewBox="0 0 536.43 142.07" xmlns="http://www.w3.org/2000/svg" xmlns:xlink="http://www.w3.org/1999/xlink"><linearGradient id="a"><stop offset="0" stop-color="#deb84a"/><stop offset=".279" stop-color="#cb9d34"/><stop offset=".479" stop-color="#c3912c"/><stop offset=".677" stop-color="#bb872c"/><stop offset="1" stop-color="#a97129"/></linearGradient><radialGradient id="b" cx="229.828" cy="13.677" gradientUnits="userSpaceOnUse" r="275.082" xlink:href="#a"/><radialGradient id="c" cx="229.829" cy="13.678" gradientUnits="userSpaceOnUse" r="275.081" xlink:href="#a"/><radialGradient id="d" cx="229.829" cy="13.678" gradientUnits="userSpaceOnUse" r="275.081" xlink:href="#a"/><path d="M530.57 65.13c-1.18 0-2.28.35-3.21.96-.01-.86-.29-1.92-1.19-3.11-1.53-2.02-3.44-1.92-4.73-1.15-1.51.89-2.63 2.96-1.89 4.61.13.29.48.42.78.29.29-.13.43-.48.29-.77-.42-.94.25-2.42 1.42-3.12.66-.39 1.95-.8 3.2.85.86 1.14 1.14 2.22.84 3.23-.44 1.47-2.01 2.5-3.22 2.93-1.64.59-6.76.21-10.76-8.51-4.08-8.9-7.76-12.32-12.7-11.82-1.63.17-3.21.81-4.53 1.77.31-.72.61-1.44.87-2.17 2.81-8 2.02-16.48-2.16-23.28-4.08-6.62-10.93-10.44-18.81-10.48-7.4-.03-14.29 3.29-17.55 8.48-.19.3-.36.59-.52.88-.63 1.02-1.06 2.16-1.36 3.22-.43-5.28-2.42-10.49-5.84-15.01-3.62-4.79-8.57-8.47-14.34-10.83-5.87-2.1-12.01-2.67-17.9-1.53-8.24 1.59-15.14 6.38-19.08 13.2 0-.47-.03-.94-.11-1.41-.19-1.16-1.09-5.15-4.66-7.51-2.09-1.38-4.67-1.93-7.69-1.62-.89.09-1.81.25-2.78.49-6.41 1.58-9.4 5.65-12.3 9.58-.08.1-.15.21-.23.31-.09.1-.16.18-.17.21-.03.03-.04.07-.06.1-1.81 2.45-3.74 4.91-6.56 6.67-.97.6-1.97 1-2.96 1.19h-2.74a6.68 6.68 0 0 1-1.6-.53c-2.08-.99-3.69-3.05-3.93-5a.438.438 0 0 0-.07-.19 8.66 8.66 0 0 1 .05-2.5c.46-2.76 3.08-4.63 5.84-4.18a5.05 5.05 0 0 1 3.42 2.26 3.74 3.74 0 0 0-1.38-.53 3.714 3.714 0 0 0-3.62 5.82c.58.8 1.43 1.33 2.4 1.49.33.06.66.07.99.03 1.66-.17 3-1.43 3.28-3.08.54-3.26-1.67-6.35-4.93-6.9-.54-.09-1.07-.1-1.58-.05a6.023 6.023 0 0 0-5.32 4.99c-.22 1.3-.17 3.17.33 4.21l.01.01c.59 1.65 1.9 3.18 3.58 4.15h-12.25c.77-.56 1.33-1.4 1.49-2.39.16-.98-.06-1.96-.64-2.76a3.663 3.663 0 0 0-2.41-1.5 3.714 3.714 0 0 0-3.63 5.82c.24.33.53.6.86.84H198.05c.77-.56 1.33-1.4 1.49-2.39.16-.98-.06-1.96-.64-2.76a3.663 3.663 0 0 0-2.41-1.5 3.714 3.714 0 0 0-3.63 5.82c.24.33.53.61.86.84h-12.63c1.68-.97 2.99-2.5 3.59-4.15l.01-.01c.5-1.05.55-2.91.33-4.21-.45-2.72-2.69-4.72-5.32-4.99-.52-.05-1.05-.04-1.58.05-3.27.55-5.48 3.64-4.93 6.9a3.714 3.714 0 0 0 3.27 3.08c.33.03.66.02.99-.03.98-.16 1.83-.69 2.4-1.49.58-.81.81-1.79.64-2.77a3.704 3.704 0 0 0-4.27-3.05c-.5.08-.96.27-1.38.53.75-1.16 1.95-2.02 3.42-2.26 2.76-.45 5.38 1.42 5.84 4.18.12.73.15 1.68.05 2.5a.62.62 0 0 0-.07.19c-.24 1.95-1.85 4-3.93 5-.52.25-1.06.42-1.61.53h-2.71c-1-.19-2-.58-2.98-1.19-2.82-1.76-4.75-4.22-6.56-6.67-.02-.03-.03-.07-.05-.1-.02-.02-.08-.1-.16-.19-.08-.11-.16-.21-.24-.32-2.9-3.93-5.89-8-12.3-9.58-.96-.24-1.89-.4-2.78-.49-3.01-.31-5.59.23-7.69 1.62-3.57 2.35-4.47 6.34-4.66 7.51-.08.5-.11 1.01-.11 1.51C134.39 7 127.46 2.17 119.18.58c-5.89-1.14-12.04-.57-17.9 1.53-5.78 2.36-10.72 6.04-14.35 10.83-3.43 4.52-5.41 9.73-5.84 15.01-.3-1.06-.73-2.2-1.36-3.22-.16-.29-.34-.58-.52-.88-3.26-5.18-10.15-8.51-17.55-8.48-7.87.04-14.73 3.85-18.81 10.48-4.18 6.8-4.98 15.28-2.16 23.28.26.74.56 1.46.87 2.17-1.31-.97-2.9-1.61-4.53-1.77-4.93-.49-8.61 2.92-12.69 11.82-4 8.71-9.12 9.1-10.76 8.51-1.21-.43-2.79-1.46-3.22-2.93-.3-1.01-.02-2.09.84-3.23 1.25-1.65 2.54-1.24 3.2-.85 1.17.69 1.84 2.18 1.42 3.12-.13.29 0 .64.29.77s.64 0 .77-.29c.74-1.65-.38-3.71-1.89-4.61-1.29-.77-3.21-.86-4.73 1.15-.9 1.19-1.18 2.25-1.18 3.11-.92-.61-2.02-.96-3.21-.96C2.63 65.13 0 67.76 0 70.99s2.63 5.86 5.86 5.86c1.18 0 2.29-.36 3.21-.96-.01.87.26 1.96 1.19 3.18 1.52 2.02 3.44 1.92 4.73 1.15 1.51-.9 2.63-2.96 1.89-4.6-.13-.29-.48-.42-.77-.29s-.43.48-.29.77c.42.94-.25 2.42-1.42 3.12-.66.39-1.95.8-3.2-.85-.86-1.13-1.14-2.22-.84-3.23.44-1.47 2.01-2.5 3.22-2.93 1.64-.59 6.76-.2 10.76 8.51 4.08 8.89 7.76 12.32 12.69 11.82 1.63-.17 3.22-.8 4.53-1.77-.31.72-.61 1.44-.87 2.17-2.81 8-2.02 16.48 2.17 23.28 4.08 6.62 10.93 10.44 18.8 10.47 7.4.03 14.29-3.29 17.55-8.48.18-.3.36-.6.52-.88 0 0 .77-1.39 1.36-3.19.43 5.28 2.42 10.48 5.84 15 3.62 4.79 8.57 8.47 14.34 10.83 5.87 2.1 12.01 2.67 17.9 1.53 8.29-1.6 15.23-6.45 19.16-13.34-.05.73-.03 1.46.09 2.19.19 1.16 1.09 5.15 4.66 7.51 2.1 1.38 4.67 1.92 7.69 1.62.89-.09 1.81-.25 2.78-.49 6.41-1.58 9.4-5.65 12.3-9.58l.24-.33c.08-.09.14-.17.16-.19.02-.03.04-.06.05-.1 1.81-2.45 3.75-4.92 6.57-6.67 2.43-1.51 5.03-1.75 7.3-.66 2.08.99 3.69 3.05 3.93 5 .01.07.03.13.07.19.11.82.08 1.77-.05 2.5-.46 2.76-3.08 4.63-5.84 4.18a5.116 5.116 0 0 1-3.42-2.26c.41.26.88.45 1.38.53.33.06.66.07.99.03a3.714 3.714 0 0 0 2.64-5.85 3.69 3.69 0 0 0-2.4-1.49 3.694 3.694 0 0 0-4.26 3.05c-.54 3.26 1.67 6.35 4.93 6.9.53.09 1.07.1 1.58.05a6.023 6.023 0 0 0 5.32-4.99c.22-1.3.17-3.16-.33-4.21l-.01-.01c-.65-1.82-2.17-3.51-4.1-4.44h13.88a3.692 3.692 0 0 0-2.23 2.81 3.69 3.69 0 0 0 3.04 4.25 3.694 3.694 0 0 0 4.26-3.05c.16-.97-.06-1.96-.64-2.76-.41-.57-.96-1-1.6-1.26h142.24a3.692 3.692 0 0 0-2.23 2.81 3.69 3.69 0 0 0 3.04 4.25 3.694 3.694 0 0 0 4.26-3.05c.16-.97-.06-1.96-.64-2.76-.41-.57-.96-1-1.6-1.26h13.52c-1.93.93-3.45 2.62-4.1 4.44l-.01.01c-.5 1.05-.55 2.91-.33 4.21.45 2.72 2.69 4.72 5.32 4.99.52.05 1.05.04 1.58-.05 3.27-.55 5.48-3.64 4.93-6.9a3.715 3.715 0 0 0-3.28-3.08c-.33-.03-.66-.02-.99.03-.97.16-1.83.69-2.4 1.49-.58.81-.81 1.79-.64 2.77a3.704 3.704 0 0 0 4.26 3.05c.5-.08.97-.26 1.38-.53-.75 1.16-1.95 2.02-3.42 2.26-2.76.45-5.38-1.42-5.84-4.18-.12-.73-.15-1.68-.05-2.5a.62.62 0 0 0 .07-.19c.24-1.95 1.85-4 3.93-5 2.28-1.09 4.87-.86 7.31.66 2.82 1.75 4.75 4.22 6.56 6.67.02.04.03.07.05.1.02.02.08.1.17.2.08.11.16.21.23.32 2.9 3.93 5.89 7.99 12.3 9.58.96.24 1.89.4 2.78.49 3.01.31 5.59-.23 7.69-1.62 3.57-2.36 4.47-6.34 4.66-7.51.11-.69.14-1.38.1-2.07 3.94 6.83 10.85 11.62 19.09 13.21 5.89 1.14 12.04.57 17.9-1.53 5.77-2.36 10.72-6.04 14.34-10.83 3.43-4.52 5.41-9.73 5.84-15 .59 1.8 1.36 3.19 1.36 3.19.17.29.33.58.52.88 3.26 5.18 10.15 8.51 17.55 8.48 7.87-.03 14.73-3.85 18.81-10.47 4.19-6.79 4.98-15.28 2.17-23.28-.26-.73-.56-1.45-.87-2.17 1.31.97 2.9 1.6 4.53 1.77 4.93.5 8.61-2.92 12.7-11.82 4-8.72 9.12-9.1 10.76-8.51 1.21.44 2.78 1.47 3.22 2.93.3 1.01.02 2.09-.84 3.23-1.25 1.65-2.54 1.24-3.2.85-1.17-.69-1.84-2.18-1.42-3.12.13-.3 0-.64-.29-.77s-.64 0-.78.29c-.74 1.64.38 3.71 1.89 4.6 1.29.77 3.21.87 4.73-1.15.93-1.22 1.19-2.31 1.19-3.18.92.61 2.02.96 3.21.96 3.23 0 5.86-2.63 5.86-5.86 0-3.2-2.63-5.83-5.86-5.83zM359.92 17.54c-.25.02-.5.02-.75-.03-.73-.12-1.37-.52-1.81-1.12a2.75 2.75 0 0 1-.48-2.08c.25-1.48 1.71-2.54 3.2-2.29.74.12 1.38.52 1.81 1.13.32.45.5.98.52 1.52-.01.19 0 .37-.04.56a2.74 2.74 0 0 1-2.45 2.31zm-21.7.79c.24-1.48 1.71-2.54 3.2-2.29.74.12 1.38.52 1.81 1.13.43.6.6 1.34.48 2.08a2.76 2.76 0 0 1-3.21 2.28c-.73-.12-1.37-.52-1.81-1.12-.42-.61-.6-1.34-.47-2.08zm-145.08 0c.24-1.48 1.71-2.54 3.2-2.29.74.12 1.38.52 1.81 1.13.43.6.6 1.34.48 2.08a2.76 2.76 0 0 1-3.21 2.28c-.73-.12-1.37-.52-1.81-1.12-.42-.61-.6-1.34-.47-2.08zm-16.75-6.31c1.5-.25 2.96.81 3.2 2.29.12.74-.05 1.47-.48 2.08s-1.07 1-1.81 1.12c-.25.04-.5.05-.75.03a2.781 2.781 0 0 1-2.46-2.31c-.03-.19-.03-.37-.04-.56.02-.54.19-1.07.52-1.52.44-.6 1.09-1.01 1.82-1.13zM1.17 70.99c0-2.58 2.1-4.69 4.69-4.69s4.69 2.1 4.69 4.69c0 2.58-2.1 4.69-4.69 4.69s-4.69-2.11-4.69-4.69zm12 .11c-.5.18-1.02.44-1.53.76.04-.28.07-.57.07-.87 0-.27-.02-.53-.06-.79.5.32 1.02.57 1.51.75.07.03.15.05.23.08-.07.02-.14.04-.22.07zm163.39 54.07c.25-.03.5-.02.75.03.73.12 1.37.52 1.81 1.12.43.61.61 1.34.48 2.08-.24 1.48-1.71 2.54-3.2 2.29-.74-.12-1.38-.52-1.81-1.13-.32-.45-.5-.98-.52-1.52.01-.19 0-.37.04-.56a2.76 2.76 0 0 1 2.45-2.31zm21.6-2.73c.43.6.6 1.34.48 2.08a2.76 2.76 0 0 1-3.21 2.28c-.73-.12-1.37-.52-1.81-1.12a2.75 2.75 0 0 1-.48-2.08c.24-1.48 1.71-2.54 3.2-2.29.74.12 1.38.52 1.82 1.13zm145.08 0c.43.6.6 1.34.48 2.08a2.76 2.76 0 0 1-3.21 2.28c-.73-.12-1.37-.52-1.81-1.12a2.75 2.75 0 0 1-.48-2.08c.24-1.48 1.71-2.54 3.2-2.29.74.12 1.38.52 1.82 1.13zm16.85 8.25c-1.5.25-2.96-.81-3.2-2.29-.12-.74.05-1.47.48-2.08s1.08-1 1.81-1.12c.25-.04.5-.05.75-.03 1.25.13 2.26 1.08 2.46 2.31.03.19.03.37.04.56-.02.54-.19 1.07-.52 1.52a2.77 2.77 0 0 1-1.82 1.13zm134.55-81.96c-2.05 5.83-5.91 10.95-11.07 14.88-.75.37-1.45.85-2.08 1.46a38.275 38.275 0 0 1-5.5 3c2.81-2.65 4.95-6.82 4.58-11.71.68-.41 3.3-2.16 3.98-5a5.9 5.9 0 0 0 0-2.74c3.18 2.06 7.49 1.7 10.28-1.09.11-.11.2-.22.31-.34-.16.52-.32 1.03-.5 1.54zm-10.48 15.89c2.62-1.24 5.85-.79 8.01 1.37a7.024 7.024 0 0 1 2.06 5.03c.01 1.82-.67 3.65-2.06 5.03-2.16 2.17-5.39 2.61-8.01 1.37-.63-.48-1.29-.94-1.96-1.38a7.007 7.007 0 0 1-2.05-5.02c-.01-1.82.67-3.64 2.05-5.02.67-.44 1.33-.9 1.96-1.38zm-4.4 9.94c-2-1.13-4.13-2.11-6.38-2.91-.63-.23-1.27-.43-1.91-.63.64-.19 1.28-.4 1.91-.63 2.25-.8 4.38-1.79 6.38-2.91a8.258 8.258 0 0 0-.78 3.54c-.01 1.21.26 2.42.78 3.54zm-5.56 26.3c-.24-.3-.52-.59-.82-.86 2.29.16 5.25-.06 7.66-1.66-.67 2.71.04 5.69 2.16 7.8 3.2 3.2 8.42 3.2 11.62 0 .19-.19.37-.39.54-.59-.58 1.47-1.64 3.45-3.5 5.45-4.01 4.3-9.08 4.79-13.25 1.25-2.23-1.89-3.23-4.03-3.5-4.68 1.02-2.21.7-4.69-.91-6.71zm-3.29-2.4c-.1-.04-.2-.08-.3-.11 2.65-.98 7.34-3.44 9.17-8.88.28-.84.49-1.67.62-2.48.88.62 2.53 2.01 3 3.97.34 1.41 0 2.89-1 4.39-2.96 4.42-9.22 3.59-11.49 3.11zm7.77-9.36c-.64 1.92-1.7 3.43-2.89 4.62-2.23 2.23-4.95 3.33-6.35 3.79.25-1.25.43-3.36-.67-4.77-.24-.31-.53-.57-.86-.77 1.16-.35 2.31-.99 3.27-1.86 1.94-1.77 2.86-4.17 2.57-6.76-.3-2.79-2.65-4.24-4.74-4.67-2.45-.5-4.78.22-5.65 1.77-.9 1.6-.65 2.73-.28 3.39.64 1.13 2.13 1.82 4.1 1.88.32.01.59-.24.6-.57a.59.59 0 0 0-.57-.6c-1.52-.04-2.69-.53-3.12-1.28-.33-.58-.23-1.33.28-2.24.62-1.09 2.47-1.59 4.4-1.2.82.17 3.52.93 3.81 3.66.33 2.98-1.24 4.89-2.2 5.76-1.57 1.43-3.67 2.12-5.34 1.78-3.13-.64-6.83-2.82-7.22-9.43 1.59-3.06 2.95-5.09 4.75-6.88 1-.99 2.44-1.81 3.55-2.35 1.97-.43 3.95-.43 5.47.14 4.72 1.74 9.81 8.49 7.09 16.59zm-10.52 8.72c-1.16-.09-2.43.01-3.81.37-2.28.61-4.39 1.88-6.06 3.55.42-2.82 1.89-8.87 6.71-9.2 1.33-.09 2.29.22 2.84.92.98 1.26.54 3.5.32 4.36zm-11.54-16.71c-1.04 2.01-2.18 4.44-3.6 7.5-.68 1.46-1.31 2.86-1.93 4.2-3.45 7.58-6.05 13.27-11.01 19.04-.88.65-1.65 1.47-2.25 2.44-4.27 4.17-10.17 5.07-14.44 5.07H140.83c-.34-.05-.68-.07-1.03-.06 0 .02 0 .04.01.06h-26.77c-4.26 0-10.17-.9-14.44-5.07-.6-.97-1.37-1.79-2.25-2.44-4.95-5.77-7.56-11.46-11.01-19.04-.61-1.34-1.25-2.74-1.93-4.2-3.73-8.03-5.51-11.71-8.65-14.81-1.22-1.21-2.95-2.15-4.17-2.73 1.09-.5 2.63-1.36 4.09-2.7 4.19-3.86 5.25-6.48 7.02-10.81.41-1.02.87-2.14 1.42-3.4 4.73-10.9 7.85-18.1 15.13-25.7 4.29-4.48 10.41-5.42 14.8-5.42H423.41c4.38 0 10.51.94 14.8 5.42 7.28 7.6 10.41 14.8 15.13 25.7.55 1.26 1 2.38 1.42 3.4 1.76 4.33 2.83 6.95 7.02 10.81.42.39.84.72 1.27 1.03.09.19.16.39.21.59.52.22 1.06.4 1.6.56.36.2.71.37 1.02.51-.18.08-.38.19-.58.29-.74.19-1.46.44-2.17.74-.09.28-.23.55-.38.81-.38.28-.73.58-1.06.9-1.54 1.52-2.75 3.18-4.03 5.43-.35.41-.7.82-1.02 1.26 0 .08-.01.15-.01.23-.03.14-.01.26-.01.39zm-25.88 38.57c1.12-.31 2.24-.72 3.33-1.25 1.43.95 2.63 2.27 3.17 4.16.52 1.79.38 3.35-.39 4.62-1.25 2.05-3.82 2.87-4.62 3.08.26-1.15.39-2.39.37-3.7-.04-2.88-.84-5.15-1.86-6.91zm-8.15.96h.8c.41 0 .84-.01 1.28-.03.24 2.3 1.11 5.04 3.43 7.7.86.99 1.79 1.82 2.76 2.51-.75.38-3.2 1.49-5.5.8-1.43-.43-2.56-1.5-3.38-3.17-1.32-2.74-.59-5.54.61-7.81zm6.4 6.91c-2.12-2.42-2.92-4.92-3.15-7.01 1.19-.09 2.45-.27 3.73-.56 1.02 1.64 1.84 3.82 1.88 6.62.01 1.06-.08 2.06-.26 3.01-.77-.58-1.51-1.26-2.2-2.06zm7.55-8.56a8.77 8.77 0 0 0-1.28-1.16c.52-.29 1.02-.63 1.52-.98-.17.7-.26 1.42-.24 2.14zm-41.15 1.65c.11.67.26 1.34.44 2.01a8.112 8.112 0 0 0-2.77-2.01zm-251.97 0a8.184 8.184 0 0 0-2.85 2.1c.19-.7.34-1.39.46-2.1zm-28.98 7.8c-.82 1.68-1.95 2.75-3.38 3.17-2.29.69-4.75-.42-5.5-.8.97-.69 1.89-1.52 2.76-2.51 2.32-2.66 3.19-5.4 3.43-7.7.46.02.91.03 1.35.03h.74c1.19 2.28 1.93 5.08.6 7.81zm-10.24 1.86c-.81-.21-3.38-1.03-4.62-3.08-.78-1.27-.91-2.83-.39-4.62.54-1.88 1.74-3.21 3.17-4.16 1.1.52 2.22.93 3.34 1.25-1.03 1.76-1.83 4.03-1.87 6.91-.02 1.31.11 2.54.37 3.7zm-4.55-13.46c.5.36 1.02.7 1.54.99-.46.34-.91.72-1.3 1.15.01-.71-.07-1.43-.24-2.14zm7.22 3.14c1.27.29 2.53.46 3.72.56-.23 2.09-1.03 4.58-3.15 7.01-.7.8-1.43 1.48-2.2 2.06-.18-.95-.27-1.94-.26-3.01.04-2.8.86-4.98 1.89-6.62zM71.39 91.02c-1.68.34-3.78-.36-5.34-1.78-.96-.88-2.52-2.79-2.2-5.76.3-2.72 2.99-3.48 3.81-3.66 1.93-.39 3.78.11 4.4 1.2.51.9.61 1.66.28 2.24-.43.75-1.6 1.24-3.12 1.28a.59.59 0 0 0-.57.6c.01.33.28.58.6.57 1.96-.06 3.46-.74 4.1-1.88.37-.66.63-1.79-.28-3.39-.88-1.55-3.2-2.27-5.65-1.77-2.09.43-4.44 1.88-4.74 4.67-.28 2.59.64 4.99 2.57 6.76.96.88 2.11 1.51 3.27 1.86-.33.21-.62.47-.86.77-1.1 1.41-.92 3.53-.67 4.77-1.4-.45-4.12-1.55-6.35-3.79-1.19-1.19-2.25-2.71-2.89-4.62-2.73-8.1 2.37-14.85 7.09-16.59 1.51-.56 3.47-.58 5.42-.16 1.11.54 2.58 1.37 3.6 2.38 1.8 1.78 3.15 3.81 4.75 6.87-.38 6.61-4.09 8.79-7.22 9.43zm.04 1.52c4.83.33 6.29 6.37 6.71 9.2-1.67-1.67-3.79-2.94-6.06-3.55-1.38-.37-2.65-.46-3.81-.37-.22-.85-.66-3.1.33-4.36.54-.7 1.49-1.01 2.83-.92zm-10.11 15.04c-.27.64-1.27 2.79-3.5 4.68-4.16 3.53-9.24 3.05-13.25-1.25-1.87-2-2.92-3.98-3.51-5.45.17.2.35.4.54.59 3.2 3.2 8.42 3.2 11.62 0a8.228 8.228 0 0 0 2.16-7.8c2.4 1.61 5.37 1.83 7.66 1.66-.31.28-.58.56-.82.86-1.61 2.01-1.93 4.49-.9 6.71zm-7.3-12.23c-1.01-1.5-1.34-2.98-1-4.39.47-1.95 2.12-3.34 3-3.97.13.81.34 1.64.62 2.48 1.83 5.44 6.53 7.9 9.17 8.88-.1.04-.2.07-.3.11-2.26.48-8.53 1.31-11.49-3.11zm2.65-27.86c2 1.12 4.13 2.11 6.39 2.91.63.23 1.27.43 1.91.63-.64.19-1.28.4-1.91.63-2.25.8-4.38 1.78-6.38 2.91.52-1.12.79-2.33.78-3.54 0-1.22-.27-2.42-.79-3.54zm5.56-26.31a6 6 0 0 0 .82.86c-2.29-.16-5.25.05-7.66 1.66.67-2.71-.04-5.69-2.15-7.8-3.2-3.2-8.42-3.2-11.63 0-.19.19-.37.39-.54.59.58-1.47 1.64-3.45 3.5-5.45 4.01-4.31 9.08-4.79 13.25-1.26 2.23 1.89 3.23 4.04 3.5 4.68-1.03 2.23-.71 4.71.91 6.72zm3.28 2.41c.1.04.2.08.3.11-2.65.98-7.34 3.44-9.17 8.88-.28.85-.49 1.67-.62 2.49-.89-.63-2.53-2.02-3-3.97-.34-1.41 0-2.89 1-4.39 2.96-4.43 9.23-3.6 11.49-3.12zm-7.76 9.36c.64-1.91 1.7-3.43 2.89-4.63 2.24-2.24 4.96-3.34 6.35-3.78-.24 1.24-.43 3.36.67 4.77.24.31.53.57.86.77-1.16.35-2.3.99-3.27 1.87-1.94 1.76-2.86 4.17-2.57 6.75.31 2.79 2.65 4.24 4.74 4.67 2.46.51 4.78-.22 5.66-1.76.91-1.61.65-2.73.28-3.39-.64-1.14-2.14-1.82-4.1-1.88a.583.583 0 0 0-.6.57c-.01.32.24.59.57.6 1.52.04 2.69.53 3.11 1.28.33.58.23 1.33-.28 2.24-.62 1.09-2.47 1.59-4.4 1.19-.82-.17-3.52-.93-3.81-3.65-.33-2.98 1.24-4.89 2.2-5.76 1.57-1.43 3.66-2.13 5.34-1.79 3.26.67 7.16 3 7.26 10.29-1.06 2.05-2.37 3.84-4.84 6.12-1.09 1-2.24 1.71-3.17 2.19-2.08.5-4.19.51-5.8-.08-4.72-1.75-9.82-8.49-7.09-16.59zm10.51-8.72c1.16.09 2.43 0 3.81-.37 2.27-.6 4.39-1.88 6.06-3.55-.42 2.82-1.88 8.87-6.71 9.19-1.34.09-2.29-.22-2.84-.92-.97-1.25-.53-3.49-.32-4.35zm37.61-21.54c-1.07.29-2.14.67-3.19 1.15-1.57-.96-2.91-2.34-3.49-4.36-.52-1.79-.38-3.35.39-4.62 1.25-2.05 3.82-2.87 4.62-3.08-.26 1.15-.39 2.39-.37 3.7.04 3.05.92 5.42 2.04 7.21zm7.71-.9h-.54c-.4 0-.83.01-1.26.03-.18-2.36-1.02-5.25-3.46-8.05-.87-.99-1.79-1.82-2.76-2.51.75-.38 3.2-1.49 5.5-.8 1.43.43 2.57 1.5 3.38 3.17 1.4 2.87.52 5.83-.8 8.16zm-6.14-7.27c2.24 2.56 3.01 5.2 3.18 7.36-1.14.09-2.34.25-3.57.52-1.11-1.67-2.03-3.95-2.07-6.93-.02-1.06.08-2.06.26-3 .77.58 1.51 1.26 2.2 2.05zm-7.55 8.57c.47.52 1 .97 1.56 1.37-.65.36-1.29.76-1.91 1.21.25-.86.36-1.73.35-2.58zm41.21-1.3c-.08-.52-.17-1.04-.28-1.56a8.66 8.66 0 0 0 2.03 1.56zm252.54-.01c.71-.38 1.37-.87 1.95-1.47-.11.49-.18.98-.26 1.47zm38.59-10c.81.21 3.38 1.03 4.62 3.08.77 1.27.91 2.83.39 4.62-.58 2.02-1.92 3.4-3.49 4.36-1.05-.48-2.12-.86-3.19-1.15 1.11-1.79 2-4.16 2.05-7.21.01-1.32-.13-2.55-.38-3.7zm4.66 13.88c-.62-.45-1.26-.86-1.91-1.21.56-.4 1.09-.84 1.56-1.37-.02.86.1 1.73.35 2.58zm-7.52-3.26c-1.23-.27-2.43-.43-3.57-.52.17-2.15.95-4.8 3.19-7.36.7-.8 1.43-1.48 2.2-2.06.18.95.27 1.94.26 3-.05 2.98-.97 5.26-2.08 6.94zm-1.26-8.64c-2.44 2.8-3.28 5.69-3.46 8.05-.43-.02-.85-.03-1.26-.03h-.61c-1.31-2.32-2.19-5.28-.79-8.15.82-1.68 1.95-2.75 3.38-3.17 2.3-.69 4.75.42 5.5.8-.97.68-1.89 1.51-2.76 2.5zm36.93 37.27c1.68-.34 3.78.36 5.34 1.79.96.87 2.52 2.78 2.2 5.76-.3 2.73-2.99 3.49-3.81 3.65-1.93.4-3.78-.11-4.4-1.19-.51-.91-.61-1.66-.28-2.24.43-.76 1.59-1.24 3.12-1.28.33-.01.58-.28.57-.6s-.28-.58-.6-.57c-1.97.06-3.46.74-4.1 1.88-.37.66-.62 1.78.28 3.39.88 1.55 3.2 2.27 5.66 1.76 2.09-.43 4.44-1.88 4.74-4.67.28-2.59-.64-4.99-2.57-6.75-.96-.88-2.1-1.52-3.27-1.87.33-.2.62-.47.86-.77 1.1-1.41.91-3.53.67-4.77 1.4.45 4.12 1.55 6.36 3.78 1.19 1.19 2.25 2.71 2.89 4.63 2.72 8.1-2.37 14.84-7.1 16.59-1.62.6-3.74.58-5.83.07-.92-.48-2.05-1.18-3.13-2.17-2.47-2.28-3.78-4.06-4.84-6.12.07-7.3 3.98-9.63 7.24-10.3zm-.04-1.52c-4.83-.32-6.29-6.37-6.71-9.19 1.67 1.67 3.79 2.94 6.06 3.55 1.38.37 2.65.46 3.81.37.22.85.65 3.1-.33 4.36-.54.69-1.5 1-2.83.91zm10.1-15.04c.27-.64 1.27-2.79 3.5-4.68 4.16-3.53 9.24-3.05 13.25 1.26 1.87 2.01 2.92 3.98 3.5 5.45-.17-.2-.34-.4-.53-.59-3.21-3.2-8.42-3.2-11.63 0a8.198 8.198 0 0 0-2.15 7.8c-2.41-1.61-5.37-1.83-7.66-1.66.3-.28.58-.57.82-.86 1.62-2.02 1.93-4.5.9-6.72zm7.31 12.23c1.01 1.5 1.34 2.98 1 4.39-.47 1.95-2.12 3.34-3 3.97-.14-.82-.34-1.64-.62-2.49-1.83-5.44-6.52-7.9-9.17-8.88.1-.04.2-.07.3-.11 2.26-.47 8.52-1.3 11.49 3.12zm11.58 0c-2.75 2.75-7.22 2.75-9.97 0s-2.75-7.22 0-9.97 7.22-2.75 9.97 0c2.75 2.76 2.75 7.23 0 9.97zm-5.68-25.26c1.64 1.4 3.08 3.08 4.27 5.01a24.2 24.2 0 0 1 3.14 8.04 19.19 19.19 0 0 0-3.02-4.25c-4.41-4.73-10.24-5.27-14.86-1.35a14.307 14.307 0 0 0-3.14 3.76c-.36-2.53-.45-7.38 3.31-10.28 5.25-4.05 10.22-.97 10.27-.94.01.01.03.01.03.01zm-30.1 3.03c3.05-4.85 9.55-7.97 16.55-7.93 3.77.02 7.29.95 10.34 2.67-2.14-.27-4.95.03-7.81 2.24-4 3.08-4.18 7.88-3.85 10.77-1-.84-2.21-1.22-3.5-1.05-1.97.26-3.74 1.73-4.12 3.43-.4 1.8.52 3.21 1.52 3.94.97.71 2.1.87 2.88.41.28-.16.37-.53.2-.8a.576.576 0 0 0-.8-.2c-.35.21-1.02.06-1.59-.35-.34-.24-1.42-1.17-1.07-2.74.27-1.2 1.67-2.34 3.13-2.53 1.57-.21 2.94.66 3.86 2.42.96 1.85.71 3.99-.67 5.71-.62.78-1.53 1.5-2.69 2-.48.11-.79.2-.85.22-.1.03-.18.09-.25.16-1.37.35-2.99.4-4.84-.1-3.6-.96-6.79-3.75-8.1-7.1-1.35-3.43-.78-7.29 1.66-11.17zm-2.2 12.78l.88 1.58s-.02.18.2 1.85 1.16 4.22 1.16 4.22c.9 2.3 2.4 4.57 4.93 5.43-2.88 1.03-5.75 3.44-6.42 8.8-.27-.64-.55-1.31-.85-2.05-.42-1.03-.88-2.15-1.43-3.42-1.38-3.17-2.64-6.07-3.93-8.8 1.91-2.45 3.33-5.3 4.12-8.49.14-.55.25-1.11.35-1.67.12.49.26.95.42 1.36.18.41.36.81.57 1.19zm-2.46-1.16c-.56 2.26-1.44 4.36-2.61 6.24 0 .01-.01.01-.02.02s-.41.45-1.1.98c-.89-1.81-1.8-3.54-2.79-5.22 2.33-1.01 4.41-2.75 5.56-5.2.87-1.85 1.33-3.6 1.56-5.13.27 2.78.08 5.58-.6 8.31zm-2-3.68c-1.1 2.34-3.01 3.87-5.1 4.73a55.507 55.507 0 0 0-3.97-5.69c1.99.66 4.22.62 6.29-.3a8.66 8.66 0 0 0 4.33-4.27c-.17 1.59-.6 3.51-1.55 5.53zm.57-12.27c1.69 3.8-.02 8.27-3.82 9.96-2.69 1.2-5.72.68-7.86-1.07-.43-.48-.87-.96-1.33-1.44l-.06-.06c-.27-.39-.51-.81-.71-1.25-1.69-3.8.02-8.27 3.82-9.96 3.79-1.69 8.26.02 9.96 3.82zm-3.55-6.5c.61.81 1.18 1.64 1.69 2.49a8.687 8.687 0 0 0-8.58-.86 8.607 8.607 0 0 0-2.97 2.19c0-1.18-.29-2.25-.88-3.21-.75-1.23-1.86-2.07-2.9-2.63.14-.05.29-.1.43-.16a5.038 5.038 0 0 0 2.55-6.65c-.02-.05-.06-.1-.08-.16 4.25 2.23 7.92 5.26 10.74 8.99zm-13.85-10.4a3.864 3.864 0 0 1 .18 7.14c-.97.43-2.03.43-2.95.08a3.914 3.914 0 0 1-2.15-2.03c-.87-1.95.01-4.24 1.96-5.11a3.9 3.9 0 0 1 2.96-.08zm-17.25-1.53c4.59-.88 9.34-.69 13.99.49-.06.02-.11.04-.17.06a5.046 5.046 0 0 0-2.55 6.65c.06.14.13.28.21.41-1.15-.27-2.54-.39-3.91.02-1.08.32-2.01.93-2.79 1.8a8.76 8.76 0 0 0-.74-3.62 8.7 8.7 0 0 0-6.96-5.09c.94-.28 1.92-.52 2.92-.72zm-6.99 2.47c3.8-1.69 8.27.02 9.96 3.82s-.02 8.26-3.82 9.96c-3.8 1.69-8.27-.02-9.96-3.81-1.69-3.81.02-8.28 3.82-9.97zm-4.87 10.44c1.95 4.38 7.11 6.35 11.49 4.4 1.19-.53 2.2-1.31 3-2.23 0 1.8.57 3.51 1.34 5H404c-1.44-2.24-2.2-5.12-1.3-8.09.64-2.14 1.61-3.85 2.54-5.15-.59 1.92-.52 4.07.37 6.07zm-1.75-6.13c-.85 1.3-1.68 2.91-2.27 4.86-.88 2.91-.29 5.94 1.08 8.43h-6.14c-.01-.17-.01-.27-.01-.28v-.03c.39-2.18 1.13-4.33 2.24-6.39 1.32-2.48 3.05-4.69 5.1-6.59zm-20.7-3.87c3.97-.97 7.24-.64 9.73 1 3.25 2.15 4.08 5.82 4.26 6.89.2 1.25.11 2.53-.24 3.73-.19.44-.35.88-.51 1.32-.29.6-.65 1.18-1.08 1.69-1.19 1.41-2.79 2.29-4.58 2.53h-2.11c-1.59-.2-2.93-.86-3.9-1.95-1.17-1.31-1.74-3.15-1.52-4.92.27-2.16 2.29-4.03 4.61-4.26h.04c.52-.05 1.15-.02 1.81.16.09.02.17.05.26.08.66.23 1.35.64 2 1.32.5.61.78 1.36.78 2.21 0 .89-.34 1.72-.97 2.35-.62.63-1.46.98-2.34.98-.77 0-1.41-.33-1.8-.94-.43-.67-.46-1.56-.1-2.34.06-.11.61-1.06 1.77-.77a.46.46 0 0 0 .23-.89c-1.51-.39-2.5.63-2.81 1.24-.51 1.09-.45 2.31.15 3.25.55.87 1.49 1.36 2.58 1.36 1.13-.01 2.19-.45 2.99-1.25s1.24-1.87 1.23-3c0-.92-.28-1.76-.77-2.48a.435.435 0 0 0-.1-.19c-.05-.06-.11-.1-.16-.16-.45-.55-1.05-.99-1.76-1.32-.03-.01-.06-.03-.09-.04-.15-.07-.3-.13-.46-.18-.17-.06-.34-.11-.5-.15-.05-.01-.1-.04-.16-.05h-.03c-.67-.15-1.3-.16-1.83-.11-.02 0-.04.01-.05.01-1.55.16-2.94.92-3.94 2-.07-.85-.45-1.75-1.34-2.6-.93-.89-2.06-1.3-3.35-1.22-.07 0-.14.01-.21.02-1.45.15-2.93.9-4.25 1.82 2.09-2.29 4.63-4.18 8.52-5.14zm-19.05 16.75c3.07-1.91 5.09-4.56 7.01-7.17.82-.95 4.54-5.03 7.87-5.37.06-.01.12-.01.17-.02 1.04-.06 1.91.26 2.66.98 1.48 1.41 1.23 2.97.5 3.95-.79 1.07-2.3 1.75-3.67.99-.58-.32-.92-1.21-.74-1.92.09-.38.38-.84 1.2-.84.24 0 .46-.21.46-.46s-.21-.46-.46-.46c-1.06 0-1.84.58-2.09 1.53-.28 1.11.25 2.43 1.19 2.95 1.45.8 2.99.41 4.08-.47-.16 1.94.48 3.93 1.76 5.36.4.45.95.93 1.67 1.34h-22.36c.25-.11.5-.23.75-.39zm-191.73 0c.25.15.5.28.75.41h-22.37c.72-.41 1.27-.89 1.67-1.35 1.28-1.44 1.92-3.42 1.77-5.36 1.09.88 2.63 1.27 4.08.46.94-.52 1.47-1.84 1.19-2.95-.24-.95-1.03-1.52-2.09-1.53-.25 0-.46.2-.46.46 0 .25.22.46.46.46.82-.01 1.11.45 1.2.84.18.71-.16 1.6-.74 1.92-1.37.76-2.89.08-3.67-.99-.72-.99-.97-2.55.5-3.95.75-.72 1.62-1.04 2.66-.98.06.01.12.01.17.02 3.32.34 7.02 4.4 7.86 5.36 1.92 2.61 3.95 5.27 7.02 7.18zm-33.05-8.86c.18-1.07 1-4.74 4.26-6.89 2.49-1.64 5.77-1.97 9.73-1 3.9.96 6.43 2.85 8.51 5.12-1.32-.92-2.79-1.67-4.25-1.82-.07-.01-.14-.01-.21-.02-1.28-.08-2.41.33-3.35 1.22-.89.85-1.26 1.75-1.34 2.6-1-1.08-2.39-1.84-3.94-2-.01 0-.03 0-.05-.01-.53-.05-1.16-.03-1.83.11h-.03c-.05.01-.1.03-.15.05-.17.04-.34.09-.51.15-.16.05-.3.11-.45.18-.03.01-.06.03-.1.05-.7.33-1.29.77-1.75 1.31-.05.06-.11.1-.16.16s-.08.12-.1.19c-.48.72-.77 1.55-.77 2.48 0 1.13.43 2.2 1.23 3s1.86 1.25 2.99 1.25c1.08 0 2.02-.49 2.58-1.36.6-.94.66-2.15.15-3.25-.32-.61-1.3-1.64-2.82-1.24a.46.46 0 0 0 .23.89c1.16-.29 1.71.66 1.77.77.36.78.33 1.67-.1 2.34-.39.61-1.03.94-1.8.94-.89 0-1.72-.35-2.34-.98s-.97-1.46-.97-2.35c0-.84.29-1.59.78-2.21.65-.68 1.34-1.09 2-1.32.08-.03.17-.05.25-.08.66-.19 1.29-.21 1.81-.17h.04c2.32.24 4.34 2.1 4.61 4.26.21 1.77-.35 3.61-1.52 4.92-.98 1.1-2.33 1.76-3.93 1.96h-2.06a7.167 7.167 0 0 1-4.6-2.53c-1.52-1.79-2.2-4.31-1.81-6.72zm-1.66 2.58c1.1 2.06 1.84 4.21 2.24 6.39 0 .01-.01.02 0 .03 0 .01 0 .12-.01.28h-6.14c1.37-2.49 1.96-5.52 1.08-8.43-.59-1.95-1.42-3.56-2.27-4.86 2.05 1.89 3.78 4.1 5.1 6.59zm-6.49-6.55c.93 1.3 1.9 3.02 2.54 5.15.9 2.98.14 5.86-1.3 8.1h-17.44c.77-1.49 1.34-3.2 1.34-5 .8.93 1.81 1.7 3 2.23 4.38 1.95 9.54-.02 11.49-4.4.9-2 .97-4.15.37-6.08zm-5.24-4.36c3.8 1.69 5.51 6.16 3.81 9.96-1.69 3.8-6.16 5.51-9.96 3.81-3.8-1.69-5.51-6.16-3.82-9.96 1.71-3.79 6.18-5.5 9.97-3.81zm-6.98-2.47c1 .19 1.97.43 2.92.72a8.685 8.685 0 0 0-6.96 5.09 8.603 8.603 0 0 0-.74 3.62 5.97 5.97 0 0 0-2.79-1.8c-1.38-.41-2.76-.3-3.91-.02.07-.13.14-.27.21-.41a5.038 5.038 0 0 0-2.55-6.65 3.25 3.25 0 0 0-.17-.06c4.65-1.18 9.4-1.37 13.99-.49zM99.57 5.27c.43-.97 1.22-1.68 2.14-2.03s1.98-.35 2.95.08c1.95.87 2.83 3.17 1.96 5.11-.43.97-1.22 1.68-2.15 2.03-.92.35-1.98.35-2.95-.08-1.95-.86-2.82-3.15-1.95-5.11zm-11.71 8.37c2.82-3.73 6.49-6.76 10.73-8.99l-.09.15a5.038 5.038 0 0 0 2.55 6.65c.14.06.28.12.43.16-1.04.57-2.15 1.41-2.9 2.63-.59.96-.87 2.03-.87 3.21-.8-.91-1.8-1.67-2.97-2.19-2.91-1.3-6.15-.85-8.58.86.52-.84 1.08-1.67 1.7-2.48zm-3.55 6.5c1.69-3.8 6.16-5.51 9.96-3.82s5.51 6.16 3.82 9.96c-.2.45-.44.87-.71 1.26-.02.02-.04.03-.06.05-.46.48-.9.95-1.33 1.43-2.14 1.76-5.17 2.28-7.86 1.08-3.8-1.69-5.51-6.16-3.82-9.96zm3.35 11.02c2.07.92 4.31.95 6.31.27a54.202 54.202 0 0 0-3.98 5.7c-2.09-.85-4-2.38-5.1-4.72a17.32 17.32 0 0 1-1.55-5.53 8.58 8.58 0 0 0 4.32 4.28zm-5.4-3.38c.24 1.53.69 3.28 1.56 5.13 1.15 2.45 3.23 4.19 5.56 5.21-.99 1.68-1.9 3.42-2.79 5.23-.7-.53-1.08-.97-1.09-.99-.01-.01-.02-.01-.02-.02a22.029 22.029 0 0 1-2.61-6.24c-.67-2.74-.86-5.54-.61-8.32zm-.86 6.92c.1.56.21 1.12.35 1.67.79 3.19 2.2 6.05 4.11 8.5-1.29 2.72-2.55 5.62-3.92 8.79-.55 1.27-1.01 2.4-1.43 3.42-.3.74-.58 1.41-.85 2.05-.68-5.36-3.54-7.77-6.42-8.8 2.53-.86 4.03-3.13 4.93-5.43 0 0 .94-2.55 1.16-4.22s.2-1.85.2-1.85l.88-1.58c.21-.38.39-.78.55-1.19.17-.41.31-.87.44-1.36zM61.66 16.54c7.01-.04 13.5 3.08 16.55 7.93 2.44 3.88 3.01 7.74 1.67 11.17-1.31 3.35-4.5 6.13-8.1 7.1-1.85.49-3.48.45-4.84.1a.598.598 0 0 0-.25-.16c-.06-.02-.37-.11-.85-.22-1.16-.5-2.07-1.22-2.7-2-1.38-1.72-1.63-3.85-.67-5.71.92-1.76 2.29-2.62 3.86-2.42 1.45.19 2.86 1.32 3.13 2.53.35 1.57-.73 2.49-1.07 2.74-.57.41-1.24.56-1.59.35-.28-.17-.64-.08-.8.2s-.07.64.2.8c.78.46 1.9.29 2.88-.41 1-.73 1.92-2.14 1.52-3.94-.38-1.7-2.15-3.17-4.12-3.43-1.3-.17-2.5.21-3.5 1.05.33-2.89.15-7.69-3.85-10.77-2.86-2.21-5.67-2.51-7.81-2.24 3.05-1.73 6.57-2.66 10.34-2.67zm-17.82 9.91c1.19-1.93 2.63-3.61 4.27-5.01.01 0 .02 0 .02-.01.05-.03 5.02-3.11 10.27.94 3.77 2.9 3.67 7.75 3.31 10.28-.6-1.05-1.61-2.45-3.14-3.76-4.62-3.92-10.46-3.38-14.86 1.35a19.19 19.19 0 0 0-3.02 4.25 24.97 24.97 0 0 1 3.15-8.04zm-1.4 10.29c2.75-2.75 7.22-2.75 9.97 0s2.75 7.22 0 9.97-7.22 2.75-9.97 0-2.75-7.22 0-9.97zM41.3 47.19c.1.11.2.23.31.34 2.79 2.79 7.09 3.15 10.27 1.09a5.77 5.77 0 0 0 0 2.74c.69 2.83 3.3 4.58 3.98 5-.37 4.89 1.76 9.06 4.58 11.71-1.94-.87-3.78-1.87-5.5-3a8.16 8.16 0 0 0-2.08-1.46c-5.16-3.93-9.02-9.05-11.07-14.88-.18-.51-.34-1.02-.49-1.54zm14.98 23.84c.01 1.82-.67 3.64-2.05 5.02-.67.44-1.33.9-1.96 1.38-2.62 1.24-5.85.79-8.01-1.37a7.007 7.007 0 0 1-2.06-5.03c-.01-1.82.67-3.64 2.06-5.03 2.16-2.16 5.39-2.62 8.01-1.37.63.48 1.29.94 1.96 1.38a7.015 7.015 0 0 1 2.05 5.02zM36.9 91.37c-3.67.37-7.03-1.38-11.51-11.14-2.85-6.19-6.33-8.57-9.03-9.2 2.7-.63 6.18-3.01 9.03-9.2 4.48-9.76 7.84-11.51 11.51-11.14 2.31.24 4.52 1.55 5.75 3.42.73 1.12 1.46 2.94.72 5.3-.71 2.25-2.55 3.98-4.81 4.5-1.92.45-3.8-.06-5.03-1.35-1.63-1.72-1.48-3.91-.66-5.22.7-1.11 1.82-1.55 2.99-1.17.87.28 1.43.72 1.67 1.31.43 1.08-.27 2.38-.27 2.39-.16.28-.06.64.23.8.28.16.64.05.8-.23.04-.07.97-1.79.33-3.38-.37-.94-1.17-1.61-2.39-2-1.69-.54-3.35.1-4.33 1.66-1.06 1.68-1.26 4.48.8 6.65 1.52 1.6 3.81 2.23 6.14 1.69a7.73 7.73 0 0 0 3.71-2.07c.88-.89 1.57-1.99 1.95-3.23.3-.98.4-1.88.35-2.7 1.49 2.08 3.24 4.01 5.21 5.75-2.37-.23-4.82.55-6.63 2.36a8.213 8.213 0 0 0-2.4 5.86 8.23 8.23 0 0 0 2.4 5.86 8.186 8.186 0 0 0 6.63 2.36A34.87 34.87 0 0 0 44.85 85c.05-.81-.05-1.71-.35-2.7a7.912 7.912 0 0 0-1.95-3.22 7.73 7.73 0 0 0-3.71-2.07c-2.33-.54-4.62.09-6.14 1.69-2.06 2.17-1.86 4.97-.8 6.65.98 1.57 2.65 2.2 4.33 1.66 1.22-.39 2.03-1.07 2.4-2 .63-1.59-.3-3.31-.34-3.38a.58.58 0 0 0-.8-.23c-.28.15-.39.51-.23.79.01.01.71 1.32.27 2.39-.24.59-.8 1.03-1.67 1.31-1.17.38-2.29-.06-2.99-1.17-.82-1.31-.97-3.5.66-5.22 1.22-1.3 3.11-1.8 5.03-1.35 2.26.52 4.1 2.25 4.8 4.5.74 2.36.02 4.19-.72 5.3-1.22 1.87-3.42 3.18-5.74 3.42zm4.89 1.95c2.05-5.84 5.9-10.95 11.07-14.88.75-.37 1.45-.86 2.09-1.46 1.72-1.13 3.55-2.13 5.5-3.01-2.81 2.65-4.95 6.82-4.58 11.71-.68.41-3.3 2.16-3.98 5-.22.91-.21 1.82.01 2.75-3.18-2.06-7.49-1.7-10.28 1.09-.11.11-.2.23-.31.34.14-.52.3-1.03.48-1.54zm.65 2.03c2.75-2.75 7.22-2.75 9.97 0s2.75 7.22 0 9.97-7.22 2.75-9.97 0c-2.75-2.76-2.75-7.23 0-9.97zm5.67 25.26c-1.64-1.4-3.08-3.08-4.27-5.01-1.52-2.48-2.58-5.2-3.14-8.04a19.19 19.19 0 0 0 3.02 4.25c4.41 4.73 10.24 5.27 14.86 1.35 1.54-1.31 2.54-2.71 3.14-3.76.36 2.54.45 7.38-3.31 10.28-5.25 4.05-10.22.98-10.27.94-.01-.01-.02-.01-.03-.01zm30.1-3.03c-3.05 4.85-9.55 7.96-16.55 7.93-3.76-.02-7.28-.95-10.34-2.67 2.14.27 4.95-.03 7.81-2.24 3.99-3.08 4.17-7.88 3.84-10.77 1 .85 2.21 1.22 3.51 1.05 1.97-.26 3.74-1.73 4.12-3.43.4-1.8-.52-3.21-1.52-3.94-.97-.71-2.1-.87-2.88-.42a.59.59 0 0 0-.21.8c.17.28.52.37.8.21.35-.21 1.02-.06 1.59.35.34.25 1.42 1.17 1.07 2.74-.27 1.2-1.67 2.34-3.13 2.53-1.57.21-2.94-.65-3.85-2.42-.96-1.86-.71-3.98.66-5.7.62-.78 1.54-1.51 2.7-2 .48-.11.79-.19.85-.21.1-.03.18-.09.25-.16 1.37-.35 2.99-.4 4.84.1 3.61.96 6.79 3.75 8.1 7.09 1.36 3.42.78 7.28-1.66 11.16zm2.21-12.78l-.88-1.86s-.01-2.5-1.37-5.79c-.9-2.29-2.4-4.57-4.93-5.43 2.77-.99 5.53-3.27 6.34-8.21.79 1.61 1.65 3.46 2.67 5.65.68 1.46 1.31 2.85 1.92 4.19.6 1.32 1.18 2.58 1.75 3.8a22.364 22.364 0 0 0-4.17 8.56c-.14.55-.25 1.1-.35 1.65-.12-.49-.27-.96-.43-1.37s-.35-.8-.55-1.19zm2.45 1.18c.56-2.26 1.44-4.36 2.61-6.25.01 0 .02-.01.02-.02.01-.02.43-.47 1.15-1.02.88 1.85 1.76 3.59 2.7 5.28-2.32 1.02-4.38 2.75-5.52 5.19-.87 1.85-1.33 3.6-1.56 5.13-.26-2.78-.07-5.58.6-8.31zm2.01 3.68c1.09-2.31 2.97-3.83 5.03-4.69 1.1 1.9 2.31 3.73 3.7 5.54-1.9-.55-4-.46-5.95.41a8.66 8.66 0 0 0-4.33 4.27c.17-1.59.6-3.51 1.55-5.53zm-.57 12.27c-1.69-3.8.02-8.27 3.82-9.96a7.54 7.54 0 0 1 7.04.48c.67.79 1.38 1.58 2.15 2.38.18.19.37.36.56.54.07.14.15.27.21.42 1.69 3.8-.02 8.27-3.82 9.96s-8.27-.02-9.96-3.82zm3.55 6.5c-.61-.81-1.18-1.64-1.69-2.49a8.687 8.687 0 0 0 8.58.86 8.607 8.607 0 0 0 2.97-2.19c0 1.18.29 2.25.87 3.21.75 1.23 1.86 2.07 2.9 2.63-.15.05-.29.1-.43.17a5.046 5.046 0 0 0-2.55 6.65c.03.05.06.11.08.16-4.24-2.24-7.91-5.27-10.73-9zm13.85 10.4a3.864 3.864 0 0 1-.18-7.14c.97-.43 2.03-.43 2.95-.08.92.36 1.71 1.06 2.15 2.03.87 1.95-.01 4.24-1.96 5.11a3.9 3.9 0 0 1-2.96.08zm17.25 1.53c-4.59.88-9.34.69-13.99-.49.06-.02.11-.04.17-.06a5.046 5.046 0 0 0 2.55-6.65c-.06-.14-.14-.28-.21-.41 1.15.27 2.54.39 3.91-.02 1.08-.32 2.01-.93 2.79-1.8a8.76 8.76 0 0 0 .74 3.62 8.7 8.7 0 0 0 6.96 5.09c-.95.28-1.92.52-2.92.72zm6.98-2.47c-3.8 1.69-8.27-.02-9.96-3.82s.02-8.26 3.82-9.96c3.8-1.69 8.27.02 9.96 3.81 1.69 3.81-.02 8.28-3.82 9.97zm4.88-10.43c-1.95-4.38-7.11-6.35-11.49-4.4-1.19.53-2.2 1.31-3 2.23 0-1.66-.5-3.24-1.18-4.65h17.51c1.29 2.18 1.92 4.92 1.07 7.74-.64 2.14-1.61 3.85-2.54 5.15.59-1.93.52-4.08-.37-6.07zm1.75 6.12c.85-1.3 1.68-2.91 2.27-4.86.84-2.78.34-5.66-.89-8.08h5.96c-.4 2.17-1.13 4.3-2.23 6.34-1.33 2.49-3.06 4.7-5.11 6.6zm20.75 4.51c-3.97.97-7.24.64-9.73-1-3.26-2.15-4.08-5.82-4.26-6.89-.39-2.4.29-4.92 1.83-6.74a7.223 7.223 0 0 1 5.56-2.6c2.09-.01 3.83.69 5.03 2.03 1.17 1.31 1.73 3.15 1.52 4.92-.27 2.16-2.29 4.03-4.61 4.26h-.04c-.52.05-1.15.02-1.82-.17-.08-.02-.17-.05-.25-.07-.66-.23-1.35-.64-2-1.32-.49-.61-.78-1.36-.78-2.21 0-.89.34-1.72.97-2.35.62-.63 1.46-.98 2.34-.98.77 0 1.41.33 1.8.94.43.67.46 1.56.1 2.34-.06.11-.61 1.05-1.77.77a.46.46 0 0 0-.23.89c1.51.39 2.5-.63 2.82-1.25.51-1.09.45-2.31-.15-3.25-.55-.87-1.49-1.36-2.58-1.36-1.13.01-2.19.45-2.99 1.25s-1.23 1.87-1.23 3c0 .92.28 1.76.77 2.48.02.07.05.14.1.19.05.06.11.11.16.16.45.54 1.05.98 1.75 1.31.03.02.06.03.1.05.15.07.3.13.45.18.17.06.33.11.49.15.06.01.11.04.17.05h.04c.67.15 1.3.16 1.83.11h.05c1.55-.16 2.94-.92 3.94-2 .07.85.45 1.75 1.34 2.6.94.89 2.06 1.3 3.35 1.22.07 0 .14-.01.21-.02 1.45-.15 2.93-.9 4.25-1.82-2.1 2.29-4.63 4.17-8.53 5.13zm19.06-16.75c-3.07 1.92-5.1 4.57-7.02 7.18-.84.97-4.54 5.03-7.86 5.36-.06.01-.12.01-.17.02-1.04.06-1.91-.26-2.66-.98-1.48-1.41-1.23-2.97-.5-3.95.79-1.07 2.3-1.75 3.67-.99.58.32.92 1.21.74 1.92-.1.38-.38.84-1.2.84-.24 0-.46.21-.46.46s.21.46.46.46c1.06 0 1.85-.58 2.09-1.53.28-1.11-.25-2.43-1.19-2.95-1.45-.8-2.99-.41-4.08.46.16-1.94-.49-3.92-1.77-5.36a6.78 6.78 0 0 0-2.23-1.63h23.52c-.45.19-.9.41-1.34.69zm191.73 0c-.44-.28-.9-.5-1.35-.7h23.52a6.78 6.78 0 0 0-2.23 1.63c-1.28 1.44-1.92 3.42-1.76 5.36-1.09-.88-2.63-1.27-4.08-.47-.94.52-1.47 1.84-1.19 2.95.25.95 1.03 1.52 2.09 1.53.25 0 .46-.2.46-.46 0-.25-.22-.46-.46-.46-.82 0-1.11-.46-1.2-.84-.18-.71.16-1.6.74-1.92 1.37-.76 2.89-.08 3.67.99.72.99.97 2.54-.5 3.95-.75.72-1.62 1.04-2.66.98-.06-.01-.12-.01-.17-.02-3.33-.34-7.04-4.42-7.86-5.37-1.93-2.58-3.95-5.24-7.02-7.15zm33.04 8.86c-.18 1.07-1 4.74-4.26 6.89-2.49 1.64-5.77 1.97-9.73 1-3.9-.96-6.43-2.85-8.52-5.12 1.32.92 2.79 1.67 4.25 1.82.07.01.14.01.21.02 1.28.08 2.41-.33 3.35-1.22.89-.85 1.26-1.75 1.34-2.6 1 1.08 2.39 1.84 3.94 2h.05c.53.05 1.16.03 1.83-.11h.04c.06-.01.11-.04.17-.05.16-.04.32-.09.48-.15s.31-.12.46-.18c.03-.01.06-.03.09-.04.7-.33 1.3-.77 1.75-1.32.05-.06.11-.1.16-.16s.08-.12.1-.19c.49-.72.77-1.56.77-2.48.01-1.13-.43-2.2-1.23-3s-1.86-1.24-2.99-1.25c-1.08 0-2.02.49-2.58 1.36-.6.94-.66 2.16-.15 3.25.32.61 1.3 1.64 2.81 1.25.25-.06.39-.31.33-.56a.468.468 0 0 0-.56-.33c-1.16.29-1.71-.66-1.77-.77-.37-.78-.33-1.67.1-2.34.39-.61 1.03-.94 1.8-.94.89 0 1.72.35 2.34.98s.97 1.46.97 2.35c0 .84-.29 1.6-.78 2.21-.65.68-1.33 1.09-2 1.32-.08.03-.17.05-.25.08-.66.19-1.29.21-1.82.17h-.04c-2.32-.24-4.34-2.1-4.61-4.26-.21-1.77.35-3.61 1.52-4.92 1.19-1.34 2.93-2.04 5.03-2.03 2.19.01 4.16.94 5.57 2.6 1.54 1.79 2.22 4.32 1.83 6.72zm1.6-3.22a21.924 21.924 0 0 1-2.23-6.34h5.96c-1.24 2.42-1.74 5.3-.9 8.08.59 1.95 1.42 3.56 2.27 4.86a25.31 25.31 0 0 1-5.1-6.6zm6.49 6.56c-.93-1.3-1.9-3.01-2.54-5.15-.85-2.82-.21-5.56 1.08-7.74h17.49c-.67 1.41-1.16 2.98-1.17 4.65-.8-.93-1.81-1.7-3-2.23-4.38-1.95-9.54.02-11.49 4.4a8.633 8.633 0 0 0-.37 6.07zm5.24 4.35c-3.8-1.69-5.51-6.16-3.81-9.96 1.69-3.8 6.16-5.51 9.96-3.81 3.8 1.69 5.51 6.16 3.82 9.96-1.7 3.79-6.17 5.5-9.97 3.81zm6.99 2.47c-1-.19-1.97-.43-2.92-.72a8.685 8.685 0 0 0 6.96-5.09c.52-1.17.76-2.41.74-3.62a5.97 5.97 0 0 0 2.79 1.8c1.38.41 2.76.29 3.91.02-.07.13-.14.27-.21.41a5.038 5.038 0 0 0 2.55 6.65c.05.02.11.04.17.06-4.65 1.18-9.4 1.37-13.99.49zm19.39-3.56c-.43.97-1.22 1.67-2.14 2.03-.92.35-1.98.35-2.95-.08-1.95-.87-2.83-3.17-1.96-5.11.43-.97 1.22-1.68 2.15-2.03.92-.35 1.98-.35 2.95.08 1.94.86 2.82 3.16 1.95 5.11zm11.71-8.37c-2.82 3.73-6.49 6.76-10.73 8.99.03-.05.06-.1.08-.16a5.041 5.041 0 0 0-2.98-6.82c1.04-.57 2.15-1.4 2.9-2.63.59-.96.88-2.03.88-3.21.8.91 1.79 1.67 2.97 2.19 2.91 1.3 6.16.86 8.58-.86-.52.86-1.09 1.7-1.7 2.5zm3.55-6.5c-1.69 3.8-6.16 5.51-9.96 3.82s-5.51-6.16-3.82-9.96c.06-.14.14-.28.21-.42.19-.18.38-.35.56-.54.77-.8 1.48-1.59 2.15-2.38a7.514 7.514 0 0 1 7.04-.48c3.8 1.69 5.51 6.16 3.82 9.96zm-3.35-11.02a8.649 8.649 0 0 0-5.95-.41 50.76 50.76 0 0 0 3.69-5.54c2.06.86 3.95 2.38 5.03 4.69a17.32 17.32 0 0 1 1.55 5.53 8.6 8.6 0 0 0-4.32-4.27zm5.39 3.39c-.24-1.53-.7-3.28-1.56-5.13-1.14-2.44-3.21-4.16-5.53-5.18.94-1.69 1.82-3.44 2.71-5.29.73.55 1.13 1.01 1.14 1.02s.02.01.02.02a21.97 21.97 0 0 1 2.61 6.25c.68 2.72.87 5.52.61 8.31zm.87-6.94c-.1-.55-.21-1.1-.35-1.65-.79-3.22-2.23-6.1-4.17-8.56.57-1.22 1.14-2.48 1.74-3.79.61-1.34 1.24-2.73 1.92-4.19 1.02-2.19 1.88-4.04 2.67-5.64.81 4.94 3.57 7.21 6.34 8.2-2.53.86-4.03 3.13-4.93 5.43-1.36 3.3-1.37 5.79-1.37 5.79l-.88 1.86c-.21.39-.39.78-.55 1.19-.16.4-.3.87-.42 1.36zm19.74 18.15c-7.01.04-13.51-3.08-16.55-7.93-2.44-3.88-3.02-7.75-1.67-11.17 1.31-3.35 4.5-6.13 8.1-7.09 1.85-.49 3.47-.45 4.84-.1.07.07.15.13.25.16.06.02.37.11.85.21 1.16.5 2.07 1.23 2.69 2 1.38 1.72 1.63 3.85.66 5.7-.91 1.76-2.28 2.62-3.85 2.42-1.46-.19-2.86-1.32-3.13-2.53-.35-1.56.73-2.49 1.07-2.74.57-.41 1.24-.56 1.59-.35a.586.586 0 0 0 .59-1.01c-.77-.46-1.9-.29-2.88.42-1 .72-1.93 2.14-1.53 3.94.38 1.7 2.16 3.18 4.12 3.43 1.3.17 2.5-.21 3.51-1.05-.33 2.89-.15 7.7 3.84 10.77 2.86 2.21 5.67 2.51 7.81 2.24-3.03 1.73-6.55 2.67-10.31 2.68zm17.81-9.91a21.173 21.173 0 0 1-4.27 5.01h-.03c-.05.04-5.02 3.11-10.27-.94-3.76-2.9-3.67-7.74-3.31-10.28.6 1.05 1.6 2.45 3.14 3.76 4.62 3.91 10.46 3.38 14.86-1.35 1.39-1.49 2.35-2.95 3.02-4.25-.56 2.85-1.61 5.56-3.14 8.05zm1.41-10.29c-2.75 2.75-7.22 2.75-9.97 0s-2.75-7.22 0-9.97 7.22-2.75 9.97 0 2.75 7.22 0 9.97zm1.14-10.45c-.1-.12-.2-.23-.31-.34-2.79-2.79-7.09-3.15-10.28-1.09.22-.92.23-1.84.01-2.75-.69-2.83-3.31-4.58-3.98-5 .37-4.89-1.76-9.06-4.58-11.71 1.94.87 3.78 1.88 5.5 3.01.63.6 1.34 1.09 2.08 1.46 5.16 3.93 9.02 9.05 11.07 14.88.18.51.34 1.02.49 1.54zm15.9-14.63c-4.48 9.76-7.84 11.51-11.51 11.14-2.31-.24-4.52-1.55-5.76-3.42-.73-1.11-1.46-2.94-.72-5.3.7-2.26 2.54-3.98 4.8-4.5 1.92-.45 3.8.06 5.03 1.35 1.63 1.71 1.49 3.91.66 5.22-.7 1.11-1.82 1.55-2.99 1.17-.87-.28-1.43-.72-1.67-1.31-.43-1.08.27-2.38.27-2.39.16-.28.05-.64-.23-.79a.583.583 0 0 0-.8.23c-.04.08-.97 1.79-.34 3.38.37.94 1.17 1.61 2.4 2 1.69.54 3.35-.1 4.33-1.66 1.06-1.68 1.26-4.48-.8-6.65-1.52-1.6-3.81-2.23-6.14-1.69a7.73 7.73 0 0 0-3.71 2.07c-.89.89-1.57 1.99-1.95 3.22-.3.98-.4 1.88-.35 2.7-1.5-2.08-3.24-4.01-5.21-5.75 2.37.24 4.82-.55 6.63-2.36a8.213 8.213 0 0 0 2.4-5.86 8.23 8.23 0 0 0-2.4-5.86 8.186 8.186 0 0 0-6.63-2.36c1.97-1.74 3.71-3.67 5.21-5.75-.05.82.05 1.72.35 2.7a8.016 8.016 0 0 0 1.95 3.23 7.73 7.73 0 0 0 3.71 2.07c2.33.54 4.62-.09 6.14-1.69 2.06-2.17 1.86-4.97.8-6.65-.98-1.57-2.65-2.2-4.33-1.66-1.22.39-2.02 1.07-2.39 2-.63 1.59.3 3.31.34 3.38.16.28.52.39.8.23s.39-.52.23-.8c-.01-.01-.7-1.32-.27-2.39.24-.59.8-1.03 1.67-1.31 1.17-.38 2.29.06 2.99 1.17.82 1.31.97 3.5-.66 5.22-1.23 1.29-3.11 1.8-5.03 1.35-2.26-.52-4.1-2.25-4.81-4.5-.74-2.36-.02-4.19.72-5.3 1.24-1.87 3.44-3.18 5.76-3.42 3.67-.37 7.03 1.38 11.51 11.14 2.85 6.19 6.33 8.57 9.03 9.2-2.7.62-6.18 3-9.03 9.2zm11.99-9.2c.08-.02.16-.05.23-.08a7.85 7.85 0 0 0 1.51-.75c-.04.26-.06.52-.06.79 0 .3.03.58.07.87-.5-.32-1.03-.58-1.53-.76-.06-.03-.14-.05-.22-.07zm7.55 4.65a4.69 4.69 0 0 1-4.69-4.69c0-2.58 2.1-4.69 4.69-4.69 2.58 0 4.68 2.1 4.68 4.69 0 2.58-2.1 4.69-4.68 4.69z" fill="url(#b)"/><path d="M448.34 59.91c-.39-.95-.83-2-1.35-3.18-4.44-10.04-7.38-16.67-13.93-23.37-2.97-3.04-7.55-3.68-10.88-3.68H114.23c-3.32 0-7.9.64-10.87 3.68-6.55 6.7-9.49 13.34-13.93 23.38-.52 1.18-.96 2.23-1.35 3.18-1.63 3.92-2.91 7.02-6.71 10.84l-.34.34.32.36c2.97 3.32 4.9 7.25 8.32 14.47.65 1.37 1.26 2.69 1.85 3.95l.08.17c3.74 8.04 6.21 13.35 11.76 19.03 2.97 3.04 7.58 3.68 10.93 3.68h307.9c3.32 0 7.89-.64 10.87-3.68 5.55-5.67 8.02-10.99 11.77-19.05.61-1.31 1.24-2.67 1.92-4.1 3.43-7.23 5.35-11.15 8.32-14.47l.32-.36-.34-.34c-3.8-3.83-5.08-6.92-6.71-10.85zm-2.52 25.58c-.68 1.43-1.31 2.79-1.93 4.12-3.69 7.94-6.14 13.19-11.56 18.74-2.73 2.79-7.01 3.37-10.14 3.37h-307.9c-3.15 0-7.47-.58-10.2-3.37-5.43-5.55-7.87-10.8-11.57-18.76l-.07-.15c-.58-1.26-1.2-2.58-1.85-3.96-3.25-6.86-5.28-11-8.17-14.36 3.68-3.81 5.03-7.07 6.59-10.83.39-.95.82-1.99 1.34-3.16 4.4-9.94 7.3-16.51 13.73-23.08 2.72-2.79 7.02-3.37 10.14-3.37l307.43.01.52-.01c3.12 0 7.42.58 10.14 3.37 6.42 6.57 9.32 13.13 13.72 23.07.52 1.17.95 2.21 1.34 3.16 1.56 3.75 2.91 7.01 6.59 10.83-2.87 3.37-4.8 7.32-8.15 14.38z" fill="url(#c)"/><path d="M443.9 57.97c-4.3-9.6-7.15-15.94-13.34-22.2-2.35-2.37-6.17-2.86-8.98-2.86l-.54.01-306.18-.01c-2.81 0-6.65.5-8.99 2.86-6.19 6.25-9.04 12.59-13.34 22.2-.51 1.14-.93 2.15-1.32 3.07-1.45 3.45-2.7 6.42-5.7 9.83l-.28.31.26.33c2.46 3.19 4.36 7.06 7.26 13.1.58 1.2 1.12 2.36 1.65 3.47l.28.59c3.61 7.65 5.99 12.71 11.2 17.97 2.34 2.37 6.21 2.86 9.05 2.86h306.65c2.8 0 6.64-.5 8.99-2.86 5.22-5.27 7.61-10.33 11.22-18l.31-.66c.51-1.08 1.04-2.21 1.6-3.38 2.9-6.04 4.8-9.9 7.26-13.1l.25-.33-.28-.31c-3-3.41-4.25-6.38-5.72-9.87-.38-.89-.81-1.89-1.31-3.02zm-1.13 26.21c-.56 1.17-1.1 2.3-1.61 3.38l-.31.65c-3.56 7.57-5.92 12.58-11.02 17.72-2.1 2.11-5.65 2.56-8.26 2.56H114.92c-2.64 0-6.22-.44-8.32-2.56-5.09-5.14-7.45-10.13-11.01-17.7l-.27-.58c-.52-1.12-1.07-2.27-1.65-3.48-2.83-5.89-4.72-9.74-7.12-12.94 2.91-3.4 4.16-6.37 5.6-9.79.38-.91.8-1.91 1.32-3.06 4.26-9.5 7.07-15.77 13.13-21.89 2.1-2.11 5.65-2.56 8.27-2.56H421.6c2.6 0 6.15.44 8.24 2.56 6.06 6.12 8.88 12.4 13.13 21.9.5 1.12.92 2.11 1.32 3.05 1.44 3.42 2.69 6.39 5.6 9.79-2.36 3.15-4.29 7.04-7.12 12.95z" fill="url(#d)"/></svg>