<svg viewBox="0 0 73.2 111.32" xmlns="http://www.w3.org/2000/svg"><radialGradient id="a" cx="31.363" cy="10.717" gradientUnits="userSpaceOnUse" r="90.169"><stop offset="0" stop-color="#deb84a"/><stop offset=".279" stop-color="#cb9d34"/><stop offset=".479" stop-color="#c3912c"/><stop offset=".677" stop-color="#bb872c"/><stop offset="1" stop-color="#a97129"/></radialGradient><path d="M67.34 49.77c-1.18 0-2.28.35-3.21.96-.01-.86-.29-1.92-1.19-3.11-1.53-2.02-3.44-1.92-4.73-1.15-1.51.89-2.63 2.96-1.89 4.61.13.29.48.42.78.29.29-.13.43-.48.29-.77-.42-.94.25-2.42 1.42-3.12.66-.39 1.95-.8 3.2.85.86 1.14 1.14 2.22.84 3.23-.44 1.47-2.01 2.5-3.22 2.93-1.64.59-6.76.2-10.76-8.51-4.08-8.9-7.76-12.32-12.7-11.82-1.63.17-3.21.81-4.53 1.77.31-.72.61-1.44.87-2.17 2.81-8 2.02-16.48-2.16-23.28C26.27 3.85 19.42.04 11.55 0 7.34-.02 3.3 1.05 0 2.93v1.36C3.22 2.3 7.29 1.15 11.54 1.17c3.77.02 7.29.95 10.34 2.67-2.14-.27-4.95.03-7.81 2.24-4 3.08-4.18 7.88-3.85 10.77-1-.84-2.21-1.22-3.5-1.05-1.97.26-3.74 1.73-4.12 3.43-.4 1.8.52 3.21 1.52 3.94.97.71 2.1.87 2.88.41.28-.16.37-.53.2-.8a.576.576 0 0 0-.8-.2c-.35.21-1.02.06-1.59-.35-.34-.24-1.42-1.17-1.07-2.74.27-1.2 1.67-2.34 3.13-2.53 1.57-.21 2.94.66 3.86 2.42.96 1.86.71 3.99-.67 5.71-.62.78-1.53 1.5-2.69 2-.48.11-.79.2-.85.22-.1.03-.18.09-.25.16-1.37.35-2.99.4-4.84-.1-.48-.13-.96-.3-1.43-.49v1.26c.37.14.74.26 1.13.36 1.38.37 2.65.46 3.81.37.22.85.65 3.1-.33 4.36-.54.7-1.5 1.01-2.84.92-.65-.05-1.23-.21-1.77-.44v2.5c.61-.25 1.22-.43 1.81-.55 1.68-.34 3.78.36 5.34 1.79.96.87 2.52 2.78 2.2 5.76-.3 2.73-2.99 3.49-3.81 3.65-1.93.4-3.78-.11-4.4-1.19-.51-.91-.61-1.66-.28-2.24.43-.76 1.59-1.24 3.12-1.28.33-.01.58-.28.57-.6s-.28-.58-.6-.57c-1.84.06-3.24.66-3.95 1.65v3.38c.04.08.07.16.12.24.88 1.55 3.2 2.27 5.66 1.76 2.09-.43 4.44-1.88 4.74-4.67.28-2.59-.64-4.99-2.57-6.75-.96-.88-2.1-1.52-3.27-1.87.33-.2.62-.47.86-.77 1.1-1.41.91-3.53.67-4.77 1.4.45 4.12 1.55 6.36 3.78 1.19 1.19 2.25 2.71 2.89 4.63 2.72 8.1-2.37 14.84-7.1 16.59-1.62.6-3.74.58-5.83.07-.76-.39-1.64-.94-2.53-1.66v2.05c.52.21 1.06.4 1.6.56.36.2.71.37 1.02.51-.18.09-.39.19-.58.29-.69.19-1.38.42-2.04.69v2.09c.92-.73 2-1.34 2.88-1.78 1.97-.43 3.95-.43 5.47.14 4.73 1.75 9.82 8.49 7.1 16.59-.64 1.92-1.7 3.43-2.89 4.62-2.23 2.23-4.95 3.33-6.35 3.79.25-1.25.43-3.36-.67-4.77-.24-.31-.53-.57-.86-.77 1.16-.35 2.31-.99 3.27-1.86 1.94-1.77 2.86-4.17 2.57-6.76-.3-2.79-2.65-4.24-4.74-4.67-2.45-.5-4.78.22-5.65 1.77-.06.07-.09.15-.13.23v3.38c.71.99 2.11 1.59 3.94 1.65.32.01.59-.24.6-.57a.59.59 0 0 0-.57-.6c-1.52-.04-2.69-.53-3.12-1.28-.33-.58-.23-1.34.28-2.24.62-1.09 2.47-1.59 4.4-1.2.82.17 3.52.93 3.81 3.66.33 2.98-1.24 4.89-2.2 5.76C5.59 75.3 3.49 76 1.81 75.65c-.59-.12-1.2-.3-1.81-.55v2.5c.54-.23 1.12-.39 1.77-.43 1.33-.09 2.29.22 2.84.92.98 1.26.54 3.51.33 4.36-1.16-.09-2.43.01-3.81.37-.38.1-.76.23-1.13.37v1.26c.47-.19.94-.36 1.43-.49 1.85-.49 3.47-.45 4.84-.1.07.07.15.13.25.16.06.02.37.11.85.21 1.16.5 2.07 1.23 2.69 2 1.38 1.72 1.63 3.85.66 5.7-.91 1.76-2.28 2.62-3.85 2.42-1.46-.19-2.86-1.32-3.13-2.53-.35-1.56.73-2.49 1.07-2.74.57-.41 1.24-.56 1.59-.35a.586.586 0 0 0 .59-1.01c-.77-.46-1.9-.29-2.88.42-1 .72-1.93 2.14-1.53 3.94.38 1.7 2.16 3.18 4.12 3.43 1.3.17 2.5-.21 3.51-1.05-.33 2.89-.15 7.7 3.84 10.77 2.86 2.21 5.67 2.51 7.81 2.24-3.06 1.72-6.58 2.66-10.34 2.67-4.26.02-8.32-1.13-11.54-3.11v1.36c3.3 1.87 7.34 2.94 11.55 2.92 7.87-.03 14.73-3.85 18.81-10.47 4.19-6.79 4.98-15.28 2.17-23.28-.26-.73-.56-1.45-.87-2.17 1.31.97 2.9 1.6 4.53 1.77 4.93.5 8.61-2.92 12.7-11.82 4-8.72 9.12-9.1 10.76-8.51 1.21.44 2.78 1.47 3.22 2.93.3 1.01.02 2.09-.84 3.23-1.25 1.65-2.54 1.24-3.2.85-1.17-.69-1.84-2.18-1.42-3.12.13-.3 0-.64-.29-.77s-.64 0-.78.29c-.74 1.64.38 3.71 1.89 4.6 1.29.77 3.21.87 4.73-1.15.93-1.22 1.19-2.31 1.19-3.18.92.61 2.02.96 3.21.96 3.23 0 5.86-2.63 5.86-5.86 0-3.22-2.63-5.84-5.86-5.84zM30.77 31.34c-2.75 2.75-7.22 2.75-9.97 0s-2.75-7.22 0-9.97 7.22-2.75 9.97 0 2.75 7.22 0 9.97zM14.79 7.01c5.25-4.05 10.22-.97 10.27-.94 0 .01.02.01.03.01 1.64 1.4 3.08 3.08 4.27 5.01a24.2 24.2 0 0 1 3.14 8.04 19.19 19.19 0 0 0-3.02-4.25c-4.41-4.73-10.24-5.27-14.86-1.35a14.307 14.307 0 0 0-3.14 3.76c-.36-2.53-.46-7.37 3.31-10.28zm-3.82 18.81c1.62-2.01 1.94-4.5.9-6.71.27-.64 1.27-2.79 3.5-4.68 4.16-3.53 9.24-3.05 13.25 1.26 1.87 2.01 2.92 3.98 3.5 5.45-.17-.2-.34-.4-.53-.59-3.21-3.2-8.42-3.2-11.63 0a8.198 8.198 0 0 0-2.15 7.8c-2.41-1.61-5.37-1.83-7.66-1.66.31-.28.59-.57.82-.87zm-3.58 2.52c.1-.04.2-.07.3-.11 2.27-.47 8.53-1.31 11.49 3.11 1.01 1.5 1.34 2.98 1 4.39-.47 1.95-2.12 3.34-3 3.97-.14-.82-.34-1.64-.62-2.49-1.83-5.44-6.52-7.89-9.17-8.87zM17.34 41c.68-.41 3.3-2.16 3.98-5a5.9 5.9 0 0 0 0-2.74c3.18 2.06 7.49 1.7 10.28-1.09.11-.11.2-.22.31-.34-.15.51-.31 1.03-.49 1.54-2.05 5.83-5.91 10.95-11.07 14.88-.75.37-1.45.85-2.08 1.46a38.275 38.275 0 0 1-5.5 3c2.8-2.65 4.94-6.82 4.57-11.71zm3.6 8.26c2.62-1.24 5.85-.79 8.01 1.37a7.024 7.024 0 0 1 2.06 5.03c.01 1.82-.67 3.65-2.06 5.03-2.16 2.17-5.39 2.61-8.01 1.37-.63-.48-1.29-.94-1.96-1.38a7.007 7.007 0 0 1-2.05-5.02c-.01-1.82.67-3.64 2.05-5.02.67-.45 1.32-.9 1.96-1.38zm-10.79 7.03c-.63-.23-1.27-.43-1.91-.63.64-.19 1.28-.4 1.91-.63 2.25-.8 4.38-1.79 6.38-2.91a8.258 8.258 0 0 0-.78 3.54c-.01 1.21.26 2.42.78 3.54-2-1.13-4.13-2.11-6.38-2.91zM7.69 83.1c-.1-.04-.2-.08-.3-.11 2.65-.98 7.34-3.44 9.17-8.88.28-.84.49-1.67.62-2.48.88.62 2.53 2.01 3 3.97.34 1.41 0 2.89-1 4.39-2.96 4.42-9.23 3.58-11.49 3.11zm3.28 2.4c-.24-.3-.52-.59-.82-.86 2.29.16 5.25-.06 7.66-1.66-.67 2.71.04 5.69 2.16 7.8 3.2 3.2 8.42 3.2 11.62 0 .19-.19.37-.39.54-.59-.58 1.47-1.64 3.45-3.5 5.45-4.01 4.3-9.08 4.79-13.25 1.25-2.23-1.89-3.23-4.03-3.5-4.68 1.03-2.21.71-4.7-.91-6.71zm18.39 14.73a21.173 21.173 0 0 1-4.27 5.01h-.03c-.05.04-5.02 3.11-10.27-.94-3.76-2.9-3.67-7.74-3.31-10.28.6 1.05 1.6 2.45 3.14 3.76 4.62 3.91 10.46 3.38 14.86-1.35 1.39-1.49 2.35-2.95 3.02-4.25-.57 2.85-1.62 5.57-3.14 8.05zm1.41-10.28c-2.75 2.75-7.22 2.75-9.97 0s-2.75-7.22 0-9.97 7.22-2.75 9.97 0 2.75 7.22 0 9.97zm1.13-10.46c-.1-.12-.2-.23-.31-.34-2.79-2.79-7.09-3.15-10.28-1.09.22-.92.23-1.84.01-2.75-.69-2.83-3.31-4.58-3.98-5 .37-4.89-1.76-9.06-4.58-11.71 1.94.87 3.78 1.88 5.5 3.01.63.6 1.34 1.09 2.09 1.46 5.16 3.93 9.02 9.05 11.07 14.88.17.52.33 1.03.48 1.54zm15.91-14.63C43.33 74.62 39.97 76.37 36.3 76c-2.31-.24-4.52-1.55-5.76-3.42-.73-1.11-1.46-2.94-.72-5.3.7-2.26 2.54-3.98 4.8-4.5 1.92-.45 3.8.06 5.03 1.35 1.63 1.71 1.49 3.91.66 5.22-.7 1.11-1.82 1.55-2.99 1.17-.87-.28-1.43-.72-1.66-1.31-.43-1.08.27-2.38.27-2.39.16-.28.05-.64-.23-.79a.583.583 0 0 0-.8.23c-.04.08-.97 1.79-.34 3.38.37.94 1.17 1.61 2.4 2 1.69.54 3.35-.1 4.33-1.66 1.06-1.68 1.26-4.48-.8-6.65-1.52-1.6-3.81-2.23-6.14-1.69a7.73 7.73 0 0 0-3.71 2.07c-.89.89-1.57 1.99-1.95 3.22-.3.98-.4 1.88-.35 2.7-1.5-2.08-3.24-4.01-5.21-5.75 2.37.24 4.82-.55 6.63-2.36a8.213 8.213 0 0 0 2.4-5.86 8.23 8.23 0 0 0-2.4-5.86 8.186 8.186 0 0 0-6.63-2.36c1.97-1.74 3.71-3.67 5.21-5.75-.05.82.05 1.72.35 2.7a8.016 8.016 0 0 0 1.95 3.23 7.73 7.73 0 0 0 3.71 2.07c2.33.54 4.62-.09 6.14-1.69 2.06-2.17 1.86-4.97.8-6.65-.98-1.57-2.65-2.2-4.33-1.66-1.22.39-2.02 1.07-2.39 2-.63 1.59.3 3.31.34 3.38.16.28.52.39.8.23s.39-.52.23-.8c-.01-.01-.7-1.32-.27-2.39.24-.59.8-1.03 1.66-1.31 1.17-.38 2.29.06 2.99 1.17.82 1.31.97 3.5-.66 5.22-1.23 1.29-3.11 1.8-5.03 1.35-2.26-.52-4.1-2.25-4.81-4.5-.74-2.36-.02-4.19.72-5.3 1.24-1.87 3.44-3.18 5.76-3.42 3.67-.37 7.03 1.38 11.51 11.14 2.85 6.19 6.33 8.57 9.03 9.2-2.7.63-6.18 3.01-9.03 9.2zm12.22-9.12c-.07-.03-.15-.05-.23-.08.08-.02.16-.05.23-.08a7.85 7.85 0 0 0 1.51-.75c-.04.26-.06.52-.06.79 0 .3.03.58.07.87-.5-.32-1.03-.58-1.52-.75zm7.31 4.57a4.69 4.69 0 0 1-4.69-4.69c0-2.58 2.1-4.69 4.69-4.69 2.58 0 4.68 2.1 4.68 4.69a4.675 4.675 0 0 1-4.68 4.69z" fill="url(#a)"/></svg>